<svg width="200px" height="104px" viewBox="0 0 200 104" version="1.1" xmlns="http://www.w3.org/2000/svg" xmlns:xlink="http://www.w3.org/1999/xlink">
    <g id="Welcome" stroke="none" stroke-width="1" fill="none" fill-rule="evenodd">
        <g id="Page-1">
            <path d="M11.9503,76.7941 C11.8414,76.8621 11.6507,76.9881 11.3784,77.172 C11.106,77.3558 10.7451,77.5397 10.2957,77.7235 C9.8462,77.9074 9.3118,78.0708 8.6921,78.2138 C8.0725,78.3568 7.3676,78.4283 6.5778,78.4283 C5.6109,78.4283 4.7257,78.2921 3.9221,78.0197 C3.1187,77.7473 2.4241,77.366 1.8385,76.8757 C1.2529,76.3855 0.8001,75.7931 0.48,75.0986 C0.16,74.404 0,73.6346 0,72.7901 C0,71.9731 0.1635,71.2206 0.4903,70.5329 C0.8171,69.8451 1.2666,69.2527 1.8385,68.7557 C2.4105,68.2586 3.0812,67.8738 3.8507,67.6015 C4.6202,67.3291 5.4475,67.193 6.3327,67.193 C7.0681,67.193 7.7286,67.2644 8.3142,67.4074 C8.8998,67.5504 9.4173,67.7274 9.8667,67.9386 C10.3161,68.1496 10.7008,68.3675 11.0209,68.5922 C11.3409,68.817 11.6099,69.011 11.8277,69.1745 L10.8676,70.6861 C10.5817,70.4954 10.2855,70.3014 9.979,70.1039 C9.6726,69.9065 9.3424,69.726 8.9883,69.5626 C8.6342,69.3992 8.2392,69.263 7.8035,69.154 C7.3676,69.0451 6.8774,68.9906 6.3327,68.9906 C5.6381,68.9906 5.0083,69.0927 4.4431,69.297 C3.8779,69.5013 3.4013,69.7805 3.0132,70.1346 C2.625,70.4886 2.3254,70.904 2.1143,71.3807 C1.9032,71.8573 1.7976,72.368 1.7976,72.9127 C1.7976,73.3758 1.893,73.832 2.0836,74.2814 C2.2743,74.7309 2.5671,75.1292 2.962,75.4765 C3.357,75.8237 3.8541,76.1029 4.4533,76.314 C5.0525,76.5251 5.7539,76.6306 6.5574,76.6306 C7.1702,76.6306 7.7286,76.5694 8.2324,76.4468 C8.7363,76.3242 9.1824,76.1812 9.5705,76.0178 C9.9586,75.8544 10.2855,75.691 10.5511,75.5275 C10.8166,75.3641 11.0175,75.2348 11.1537,75.1394 L11.9503,76.7941 Z" id="Fill-1" fill="#1D2961"></path>
            <path d="M25.065,76.6306 C25.8005,76.6306 26.4576,76.5285 27.0364,76.3242 C27.6152,76.1199 28.1054,75.8408 28.5072,75.4867 C28.9089,75.1326 29.2154,74.7275 29.4264,74.2712 C29.6375,73.815 29.7431,73.3281 29.7431,72.8106 C29.7431,72.3067 29.6375,71.8232 29.4264,71.3602 C29.2154,70.8972 28.9089,70.4886 28.5072,70.1346 C28.1054,69.7805 27.6152,69.5013 27.0364,69.297 C26.4576,69.0927 25.8005,68.9906 25.065,68.9906 C24.3296,68.9906 23.6726,69.0927 23.0937,69.297 C22.515,69.5013 22.0247,69.7805 21.6229,70.1346 C21.2212,70.4886 20.9148,70.8972 20.7037,71.3602 C20.4926,71.8232 20.3871,72.3067 20.3871,72.8106 C20.3871,73.3281 20.4926,73.815 20.7037,74.2712 C20.9148,74.7275 21.2212,75.1326 21.6229,75.4867 C22.0247,75.8408 22.515,76.1199 23.0937,76.3242 C23.6726,76.5285 24.3296,76.6306 25.065,76.6306 Z M31.5407,72.8106 C31.5407,73.5732 31.3943,74.295 31.1016,74.976 C30.8087,75.6569 30.3831,76.2527 29.8248,76.7634 C29.2664,77.2741 28.5889,77.6793 27.7922,77.9789 C26.9955,78.2785 26.0865,78.4283 25.065,78.4283 C24.0573,78.4283 23.1551,78.2785 22.3583,77.9789 C21.5617,77.6793 20.8841,77.2741 20.3258,76.7634 C19.7674,76.2527 19.3385,75.6569 19.0388,74.976 C18.7392,74.295 18.5894,73.5732 18.5894,72.8106 C18.5894,72.0479 18.7358,71.3262 19.0286,70.6453 C19.3214,69.9643 19.747,69.3685 20.3054,68.8578 C20.8637,68.3471 21.5413,67.942 22.3379,67.6423 C23.1346,67.3427 24.0437,67.193 25.065,67.193 C26.0865,67.193 26.9955,67.3427 27.7922,67.6423 C28.5889,67.942 29.2664,68.3471 29.8248,68.8578 C30.3831,69.3685 30.8087,69.9643 31.1016,70.6453 C31.3943,71.3262 31.5407,72.0479 31.5407,72.8106 Z" id="Fill-2" fill="#1D2961"></path>
            <path d="M41.2236,78.1014 L39.4259,78.1014 L39.4259,67.5198 L45.3296,67.5198 C45.7517,67.5198 46.2114,67.547 46.7084,67.6015 C47.2055,67.656 47.672,67.7956 48.1078,68.0203 C48.5436,68.245 48.9079,68.5854 49.2006,69.0417 C49.4935,69.4979 49.6399,70.1209 49.6399,70.9109 C49.6399,71.5781 49.5344,72.1263 49.3232,72.5552 C49.1122,72.9843 48.8193,73.3247 48.4448,73.5767 C48.0703,73.8286 47.6175,74.0057 47.0863,74.1078 C46.5553,74.2099 45.9696,74.261 45.3296,74.261 L41.2236,74.261 L41.2236,78.1014 Z M45.3296,72.4633 C45.7517,72.4633 46.1194,72.4497 46.4327,72.4224 C46.7459,72.3953 47.0081,72.3271 47.2191,72.2182 C47.4303,72.1093 47.5868,71.9526 47.689,71.7484 C47.7912,71.5441 47.8422,71.2649 47.8422,70.9109 C47.8422,70.5159 47.781,70.2094 47.6584,69.9916 C47.5358,69.7737 47.3621,69.6136 47.1375,69.5115 C46.9128,69.4094 46.6472,69.3515 46.3407,69.3378 C46.0344,69.3242 45.6973,69.3174 45.3296,69.3174 L41.2236,69.3174 L41.2236,72.4633 L45.3296,72.4633 Z" id="Fill-3" fill="#1D2961"></path>
            <path d="M58.5617,78.1014 L56.7641,78.1014 L56.7641,67.5198 L62.6677,67.5198 C63.0899,67.5198 63.5495,67.547 64.0466,67.6015 C64.5437,67.656 65.0101,67.7956 65.446,68.0203 C65.8817,68.245 66.246,68.5854 66.5389,69.0417 C66.8316,69.4979 66.978,70.1209 66.978,70.9109 C66.978,71.5781 66.8725,72.1263 66.6614,72.5552 C66.4503,72.9843 66.1575,73.3247 65.783,73.5767 C65.4085,73.8286 64.9557,74.0057 64.4246,74.1078 C63.8934,74.2099 63.3078,74.261 62.6677,74.261 L58.5617,74.261 L58.5617,78.1014 Z M62.6677,72.4633 C63.0899,72.4633 63.4576,72.4497 63.7708,72.4224 C64.0841,72.3953 64.3462,72.3271 64.5573,72.2182 C64.7684,72.1093 64.925,71.9526 65.0272,71.7484 C65.1293,71.5441 65.1804,71.2649 65.1804,70.9109 C65.1804,70.5159 65.1191,70.2094 64.9965,69.9916 C64.8739,69.7737 64.7004,69.6136 64.4756,69.5115 C64.2509,69.4094 63.9853,69.3515 63.6789,69.3378 C63.3725,69.3242 63.0354,69.3174 62.6677,69.3174 L58.5617,69.3174 L58.5617,72.4633 L62.6677,72.4633 Z" id="Fill-4" fill="#1D2961"></path>
            <polygon id="Fill-5" fill="#1D2961" points="83.8364 78.1014 74.3168 78.1014 74.3168 67.5198 83.6317 67.5198 83.6317 69.3174 76.1145 69.3174 76.1145 71.7484 80.2409 71.7484 80.2409 73.546 76.1145 73.546 76.1145 76.3038 83.8364 76.3038"></polygon>
            <path d="M125.987,69.8894 C125.769,69.7669 125.527,69.6341 125.262,69.4911 C124.996,69.3481 124.69,69.2153 124.343,69.0927 C123.995,68.9701 123.6,68.868 123.157,68.7863 C122.715,68.7046 122.201,68.6638 121.615,68.6638 C120.635,68.6638 119.896,68.7863 119.399,69.0315 C118.902,69.2766 118.653,69.6239 118.653,70.0732 C118.653,70.332 118.687,70.5465 118.756,70.7167 C118.824,70.887 118.977,71.0232 119.215,71.1253 C119.454,71.2274 119.797,71.3023 120.247,71.35 C120.696,71.3977 121.302,71.4215 122.065,71.4215 C123.263,71.4215 124.213,71.5066 124.915,71.6768 C125.616,71.8471 126.15,72.0752 126.518,72.3612 C126.886,72.6472 127.124,72.9774 127.233,73.352 C127.342,73.7265 127.396,74.118 127.396,74.5265 C127.396,75.2892 127.236,75.9054 126.916,76.3753 C126.596,76.8452 126.184,77.206 125.68,77.458 C125.176,77.7099 124.614,77.8801 123.995,77.9687 C123.375,78.0572 122.773,78.1014 122.187,78.1014 C121.288,78.1014 120.491,78.0299 119.797,77.8869 C119.102,77.7439 118.5,77.5772 117.989,77.3864 C117.478,77.1958 117.06,76.9983 116.733,76.7941 C116.406,76.5898 116.154,76.4264 115.977,76.3038 L116.835,74.7309 C117.134,74.9215 117.448,75.1088 117.775,75.2926 C118.102,75.4765 118.47,75.6432 118.878,75.7931 C119.286,75.9429 119.76,76.0655 120.297,76.1608 C120.835,76.2561 121.479,76.3038 122.228,76.3038 C122.705,76.3038 123.141,76.2765 123.535,76.2221 C123.931,76.1676 124.271,76.0791 124.557,75.9565 C124.843,75.834 125.065,75.6705 125.221,75.4663 C125.377,75.2619 125.456,75.01 125.456,74.7104 C125.456,74.37 125.398,74.1078 125.282,73.9239 C125.166,73.7401 124.942,73.6005 124.608,73.5052 C124.275,73.4098 123.805,73.3451 123.199,73.3111 C122.593,73.277 121.792,73.2464 120.798,73.2192 C120.199,73.2055 119.648,73.1477 119.144,73.0455 C118.64,72.9434 118.207,72.78 117.846,72.5552 C117.485,72.3305 117.207,72.0344 117.008,71.6666 C116.811,71.2989 116.712,70.8359 116.712,70.2776 C116.712,69.8281 116.801,69.3992 116.978,68.9906 C117.155,68.582 117.438,68.2211 117.826,67.9079 C118.214,67.5946 118.718,67.3427 119.338,67.1521 C119.957,66.9614 120.709,66.8661 121.595,66.8661 C122.235,66.8661 122.834,66.924 123.393,67.0397 C123.95,67.1555 124.454,67.2883 124.905,67.4381 C125.354,67.5879 125.742,67.7411 126.068,67.8977 C126.396,68.0543 126.648,68.1803 126.824,68.2756 L125.987,69.8894 Z" id="Fill-6" fill="#1D2961"></path>
            <polygon id="Fill-7" fill="#1D2961" points="144.086 77.7746 134.566 77.7746 134.566 67.193 143.882 67.193 143.882 68.9906 136.364 68.9906 136.364 71.4215 140.49 71.4215 140.49 73.2192 136.364 73.2192 136.364 75.977 144.086 75.977"></polygon>
            <path d="M164.33,77.7746 L162.205,77.7746 L160.858,75.3028 L154.402,75.3028 L153.095,77.7746 L151.052,77.7746 L156.772,67.193 L158.57,67.193 L164.33,77.7746 Z M157.65,69.2153 L155.342,73.5052 L159.958,73.5052 L157.65,69.2153 Z" id="Fill-8" fill="#1D2961"></path>
            <path d="M182.955,77.7746 L180.708,77.7746 L177.664,73.4439 L173.947,73.4439 L173.947,77.7746 L172.149,77.7746 L172.149,67.193 L178.686,67.193 C179.217,67.193 179.724,67.244 180.208,67.3461 C180.691,67.4483 181.12,67.6151 181.495,67.8466 C181.869,68.0781 182.165,68.388 182.383,68.7761 C182.601,69.1643 182.71,69.6511 182.71,70.2367 C182.71,70.8223 182.621,71.3091 182.445,71.6973 C182.267,72.0854 182.039,72.3953 181.76,72.6268 C181.481,72.8583 181.175,73.0319 180.841,73.1477 C180.508,73.2635 180.183,73.3486 179.87,73.403 L182.955,77.7746 Z M178.87,71.6463 C179.469,71.6463 179.959,71.5475 180.34,71.35 C180.721,71.1526 180.912,70.7951 180.912,70.2776 C180.912,69.9779 180.865,69.743 180.77,69.5727 C180.674,69.4026 180.534,69.2732 180.351,69.1847 C180.167,69.0961 179.942,69.0417 179.676,69.0212 C179.411,69.0008 179.108,68.9906 178.768,68.9906 L173.947,68.9906 L173.947,71.6463 L178.87,71.6463 Z" id="Fill-9" fill="#1D2961"></path>
            <path d="M198.404,69.8894 C198.186,69.7669 197.944,69.6341 197.678,69.4911 C197.413,69.3481 197.106,69.2153 196.759,69.0927 C196.412,68.9701 196.017,68.868 195.575,68.7863 C195.132,68.7046 194.618,68.6638 194.032,68.6638 C193.051,68.6638 192.313,68.7863 191.816,69.0315 C191.319,69.2766 191.07,69.6239 191.07,70.0732 C191.07,70.332 191.104,70.5465 191.172,70.7167 C191.24,70.887 191.394,71.0232 191.632,71.1253 C191.87,71.2274 192.214,71.3023 192.663,71.35 C193.113,71.3977 193.719,71.4215 194.481,71.4215 C195.68,71.4215 196.63,71.5066 197.331,71.6768 C198.033,71.8471 198.567,72.0752 198.935,72.3612 C199.303,72.6472 199.541,72.9774 199.65,73.352 C199.759,73.7265 199.814,74.118 199.814,74.5265 C199.814,75.2892 199.654,75.9054 199.334,76.3753 C199.013,76.8452 198.601,77.206 198.098,77.458 C197.594,77.7099 197.032,77.8801 196.412,77.9687 C195.793,78.0572 195.19,78.1014 194.604,78.1014 C193.705,78.1014 192.909,78.0299 192.214,77.8869 C191.52,77.7439 190.917,77.5772 190.406,77.3864 C189.896,77.1958 189.477,76.9983 189.15,76.7941 C188.823,76.5898 188.571,76.4264 188.394,76.3038 L189.253,74.7309 C189.552,74.9215 189.865,75.1088 190.192,75.2926 C190.518,75.4765 190.886,75.6432 191.295,75.7931 C191.704,75.9429 192.177,76.0655 192.715,76.1608 C193.253,76.2561 193.896,76.3038 194.645,76.3038 C195.122,76.3038 195.557,76.2765 195.953,76.2221 C196.347,76.1676 196.688,76.0791 196.974,75.9565 C197.26,75.834 197.481,75.6705 197.638,75.4663 C197.794,75.2619 197.872,75.01 197.872,74.7104 C197.872,74.37 197.815,74.1078 197.699,73.9239 C197.583,73.7401 197.358,73.6005 197.025,73.5052 C196.691,73.4098 196.221,73.3451 195.615,73.3111 C195.009,73.277 194.209,73.2464 193.216,73.2192 C192.616,73.2055 192.064,73.1477 191.56,73.0455 C191.056,72.9434 190.624,72.78 190.263,72.5552 C189.902,72.3305 189.623,72.0344 189.426,71.6666 C189.229,71.2989 189.13,70.8359 189.13,70.2776 C189.13,69.8281 189.218,69.3992 189.395,68.9906 C189.573,68.582 189.855,68.2211 190.243,67.9079 C190.631,67.5946 191.135,67.3427 191.754,67.1521 C192.374,66.9614 193.127,66.8661 194.012,66.8661 C194.652,66.8661 195.251,66.924 195.809,67.0397 C196.368,67.1555 196.872,67.2883 197.321,67.4381 C197.77,67.5879 198.158,67.7411 198.486,67.8977 C198.812,68.0543 199.064,68.1803 199.242,68.2756 L198.404,69.8894 Z" id="Fill-10" fill="#1D2961"></path>
            <polygon id="Fill-11" fill="#94C6B6" points="97.166 72.0682 99.3278 72.0682 99.3278 69.9066 100.486 69.9066 100.486 72.0682 102.648 72.0682 102.648 73.2262 100.486 73.2262 100.486 75.3877 99.3278 75.3877 99.3278 73.2262 97.166 73.2262"></polygon>
            <polygon id="Fill-12" fill="#B9D4E2" points="97.166 72.0682 99.3278 72.0682 99.3278 69.9066 100.486 69.9066 100.486 72.0682 102.648 72.0682 102.648 73.2262 100.486 73.2262 100.486 75.3877 99.3278 75.3877 99.3278 73.2262 97.166 73.2262"></polygon>
            <path d="M92.4297,0 C92.4429,0.002 92.4554,0.003 92.4678,0.007 C92.5184,0.021 92.5631,0.052 92.593,0.095 C92.6129,0.124 92.6137,0.133 92.6253,0.165 L97.5507,18.8543 C97.5531,18.8667 97.5565,18.8792 97.5573,18.8924 C97.5614,18.9447 97.5473,18.9969 97.5167,19.0391 C97.4388,19.1509 97.273,19.1646 97.1768,19.0682 C97.1478,19.0383 97.1329,19.006 97.1196,18.9679 L92.1943,0.279 C92.1885,0.245 92.1843,0.236 92.1876,0.201 C92.1951,0.124 92.2448,0.053 92.3161,0.02 C92.3476,0.005 92.3576,0.006 92.3907,0 C92.404,0 92.4172,0 92.4297,0 Z" id="Fill-13" fill="#5696B9"></path>
            <path d="M79.2671,7.5364 C79.2957,7.5439 79.3035,7.5447 79.3298,7.5588 C79.3562,7.5721 79.3609,7.5787 79.3833,7.5978 L93.0737,21.2885 C93.111,21.3321 93.1367,21.379 93.1392,21.4378 C93.1442,21.5786 93.0132,21.6912 92.8748,21.665 C92.8292,21.6563 92.7936,21.6336 92.7587,21.6037 L79.0681,7.9127 C79.0456,7.887 79.0269,7.8622 79.0153,7.829 C78.9814,7.732 79.0201,7.6218 79.1072,7.5671 C79.1368,7.548 79.1668,7.5406 79.2007,7.5339 C79.2342,7.5331 79.2341,7.5331 79.2671,7.5364 Z" id="Fill-14" fill="#5696B9"></path>
            <path d="M71.6402,20.6447 L71.6785,20.6515 L90.3674,25.7223 C90.3798,25.7268 90.3922,25.7302 90.4038,25.7357 C90.4511,25.7578 90.4892,25.7966 90.5116,25.8439 C90.5688,25.9677 90.4975,26.1179 90.3657,26.1528 C90.3259,26.1634 90.2903,26.1596 90.2505,26.1525 L71.5618,21.0817 C71.5111,21.0631 71.4688,21.0394 71.4372,20.9939 C71.3678,20.8942 71.3932,20.753 71.4929,20.6837 C71.5268,20.6601 71.5615,20.6515 71.6014,20.6446 C71.6143,20.6447 71.6273,20.6447 71.6402,20.6447 Z" id="Fill-15" fill="#5696B9"></path>
            <path d="M90.3284,30.7859 C90.3682,30.793 90.403,30.8017 90.437,30.8254 C90.5364,30.8951 90.5613,31.0364 90.4917,31.1358 C90.4594,31.1811 90.4171,31.2048 90.3665,31.2232 L71.6777,36.2215 C71.665,36.2238 71.6523,36.2272 71.6395,36.2283 C71.5876,36.2328 71.5349,36.2186 71.4922,36.1887 C71.3805,36.1104 71.3661,35.945 71.4627,35.8486 C71.4919,35.8194 71.5244,35.8049 71.5625,35.7909 L90.2513,30.7926 L90.2894,30.7859 C90.3027,30.7859 90.316,30.7859 90.3284,30.7859 Z" id="Fill-16" fill="#5696B9"></path>
            <path d="M92.8698,35.2778 C92.9038,35.2844 92.9336,35.2922 92.9635,35.3108 C93.0505,35.3658 93.0887,35.4765 93.0547,35.5734 C93.0431,35.6064 93.024,35.6311 93.0016,35.6572 L79.311,49.2753 C79.2673,49.3127 79.2204,49.338 79.1615,49.3401 C79.0208,49.345 78.9084,49.2137 78.935,49.0753 C78.9438,49.0293 78.9666,48.9941 78.9967,48.9593 L92.6875,35.3412 C92.7098,35.3221 92.7148,35.3158 92.7405,35.302 C92.767,35.2881 92.7753,35.2877 92.8035,35.2802 C92.8367,35.2765 92.8367,35.2765 92.8698,35.2778 Z" id="Fill-17" fill="#5696B9"></path>
            <path d="M97.355,37.8125 C97.389,37.8186 97.3981,37.818 97.4296,37.8328 C97.5009,37.8663 97.5507,37.9371 97.5573,38.0157 C97.5598,38.0504 97.5565,38.059 97.5498,38.0928 L92.4802,56.7816 C92.4753,56.7938 92.4719,56.8064 92.4661,56.8181 C92.4446,56.8653 92.4056,56.9037 92.3584,56.9255 C92.234,56.9828 92.084,56.9122 92.0492,56.7803 C92.0384,56.7403 92.0426,56.7049 92.05,56.6649 L97.1196,37.9761 C97.1321,37.9438 97.1329,37.9345 97.1528,37.906 C97.1826,37.8635 97.2274,37.8324 97.2779,37.819 C97.2904,37.8157 97.3036,37.8146 97.3161,37.8124 C97.3293,37.8125 97.3426,37.8125 97.355,37.8125 Z" id="Fill-18" fill="#5696B9"></path>
            <path d="M102.425,37.8125 C102.439,37.8148 102.451,37.8159 102.464,37.8193 C102.514,37.8329 102.559,37.8642 102.589,37.907 C102.609,37.9354 102.609,37.9448 102.621,37.9771 L107.619,56.7384 C107.626,56.7783 107.63,56.8138 107.619,56.8538 C107.584,56.9855 107.433,57.0554 107.309,56.9976 C107.262,56.9755 107.224,56.9369 107.202,56.8897 C107.197,56.8779 107.193,56.8653 107.188,56.8531 L102.191,38.0919 C102.185,38.058 102.181,38.0494 102.184,38.0147 C102.191,37.9361 102.241,37.8656 102.312,37.8324 C102.343,37.8178 102.353,37.8183 102.386,37.8125 C102.4,37.8125 102.413,37.8125 102.425,37.8125 Z" id="Fill-19" fill="#5696B9"></path>
            <path d="M106.94,35.2805 C106.968,35.2883 106.976,35.2887 107.002,35.3028 C107.028,35.3168 107.033,35.3231 107.056,35.3425 L120.674,49.1056 C120.704,49.1405 120.726,49.176 120.734,49.222 C120.76,49.3606 120.646,49.491 120.506,49.485 C120.448,49.4825 120.4,49.4568 120.357,49.4191 L106.738,35.656 C106.716,35.6297 106.698,35.6048 106.686,35.5717 C106.653,35.4745 106.692,35.3641 106.78,35.3099 C106.809,35.2914 106.839,35.2839 106.873,35.2777 C106.907,35.2766 106.907,35.2766 106.94,35.2805 Z" id="Fill-20" fill="#5696B9"></path>
            <path d="M109.452,30.8584 L109.491,30.8652 L128.18,35.936 C128.192,35.9405 128.204,35.9439 128.216,35.9494 C128.263,35.9715 128.301,36.0103 128.324,36.0575 C128.381,36.1814 128.31,36.3316 128.178,36.3665 C128.138,36.3771 128.102,36.3733 128.063,36.3662 L109.374,31.2954 C109.324,31.2768 109.281,31.253 109.249,31.2076 C109.18,31.1079 109.205,30.9667 109.305,30.8974 C109.339,30.8738 109.373,30.8652 109.414,30.8583 C109.426,30.8583 109.44,30.8584 109.452,30.8584 Z" id="Fill-21" fill="#5696B9"></path>
            <path d="M128.214,20.7898 C128.267,20.7994 128.313,20.8156 128.352,20.8549 C128.437,20.9412 128.437,21.0846 128.35,21.17 C128.32,21.1992 128.288,21.2135 128.25,21.2272 L109.489,26.153 C109.476,26.1551 109.464,26.1585 109.45,26.1595 C109.398,26.1638 109.346,26.1494 109.304,26.1193 C109.192,26.0405 109.179,25.8751 109.276,25.7791 C109.305,25.75 109.338,25.7355 109.376,25.7219 L128.136,20.7961 L128.175,20.7895 C128.188,20.7896 128.201,20.7897 128.214,20.7898 Z" id="Fill-22" fill="#5696B9"></path>
            <path d="M120.685,7.6069 C120.719,7.6135 120.749,7.621 120.779,7.64 C120.866,7.6947 120.904,7.8058 120.87,7.902 C120.859,7.9351 120.84,7.96 120.817,7.9865 L107.054,21.6766 C107.01,21.714 106.964,21.7393 106.905,21.7414 C106.764,21.7463 106.651,21.615 106.678,21.4766 C106.687,21.4306 106.71,21.3954 106.74,21.3607 L120.503,7.6699 C120.525,7.6508 120.53,7.645 120.556,7.6309 C120.583,7.6168 120.591,7.6168 120.619,7.6094 C120.652,7.6052 120.652,7.6052 120.685,7.6069 Z" id="Fill-23" fill="#5696B9"></path>
            <path d="M107.569,0 C107.603,0.006 107.612,0.006 107.643,0.021 C107.715,0.054 107.764,0.124 107.77,0.203 C107.774,0.238 107.769,0.246 107.764,0.28 L102.693,18.9695 C102.689,18.9811 102.686,18.9936 102.68,19.006 C102.658,19.0524 102.619,19.0913 102.572,19.1132 C102.448,19.1704 102.298,19.0998 102.263,18.9679 C102.252,18.9281 102.256,18.8924 102.263,18.8526 L107.333,0.163 C107.345,0.132 107.347,0.122 107.367,0.094 C107.396,0.051 107.441,0.02 107.492,0.007 C107.504,0.003 107.517,0.002 107.53,0 C107.543,0 107.556,0 107.569,0 Z" id="Fill-24" fill="#5696B9"></path>
            <path d="M100.179,5.2942 C100.21,5.3042 100.219,5.3058 100.246,5.3232 C100.288,5.3506 100.319,5.3912 100.335,5.4376 C100.346,5.4691 100.345,5.4774 100.347,5.5097 L100.347,22.243 C100.344,22.2812 100.339,22.3148 100.32,22.3491 C100.252,22.4749 100.079,22.5038 99.9735,22.407 C99.9371,22.3736 99.913,22.3283 99.9047,22.2798 C99.9023,22.2677 99.9023,22.2553 99.9014,22.243 L99.9014,5.5097 C99.9039,5.4774 99.9031,5.4691 99.9139,5.4376 C99.9379,5.3672 99.9976,5.3125 100.07,5.2942 C100.101,5.2859 100.11,5.2876 100.143,5.2876 C100.155,5.2901 100.167,5.2917 100.179,5.2942 Z" id="Fill-25" fill="#A7C7D9"></path>
            <path d="M88.6664,8.1863 C88.6971,8.1913 88.7054,8.1913 88.7336,8.2037 C88.7792,8.2244 88.809,8.2567 88.8364,8.2965 L97.166,22.7839 C97.1926,22.8385 97.2042,22.8931 97.1884,22.953 C97.1569,23.0702 97.0326,23.1417 96.9149,23.1102 C96.8925,23.104 96.871,23.0944 96.8511,23.0816 C96.8204,23.0615 96.8005,23.036 96.7798,23.006 L88.4493,8.5187 C88.4343,8.4855 88.4219,8.4557 88.4203,8.4184 C88.4161,8.3363 88.46,8.2559 88.5313,8.2145 C88.5637,8.1962 88.5952,8.1896 88.6316,8.1846 C88.6432,8.1854 88.6548,8.1854 88.6664,8.1863 Z" id="Fill-26" fill="#A7C7D9"></path>
            <path d="M80.142,16.5201 C80.1756,16.53 80.1755,16.53 80.207,16.545 L94.6942,24.9478 C94.744,24.9821 94.7821,25.0233 94.7979,25.0833 C94.8294,25.2006 94.7572,25.3247 94.6395,25.3559 C94.6172,25.3619 94.5939,25.3644 94.5707,25.363 C94.5334,25.361 94.5036,25.349 94.4704,25.3333 L79.9833,16.9304 C79.9535,16.9097 79.928,16.8898 79.908,16.8591 C79.8422,16.7572 79.8722,16.6163 79.9742,16.5508 C80.0156,16.5242 80.0589,16.5168 80.1072,16.5151 C80.1188,16.5168 80.1304,16.5184 80.142,16.5201 Z" id="Fill-27" fill="#A7C7D9"></path>
            <path d="M94.3154,31.1485 C94.3511,31.155 94.3826,31.163 94.4141,31.183 C94.5044,31.2418 94.5409,31.3614 94.497,31.4604 C94.4771,31.5056 94.4447,31.5355 94.405,31.5629 L79.9172,39.9656 C79.8845,39.9814 79.8543,39.9934 79.8175,39.9954 C79.7942,39.9967 79.7708,39.9942 79.7482,39.9883 C79.6309,39.9571 79.5588,39.8329 79.59,39.7156 C79.606,39.6556 79.6439,39.6144 79.6936,39.5801 L94.1811,31.1774 C94.2151,31.1611 94.2433,31.1526 94.2806,31.1476 C94.2922,31.1479 94.3038,31.1482 94.3154,31.1485 Z" id="Fill-28" fill="#A7C7D9"></path>
            <path d="M96.585,33.5427 C96.6148,33.5516 96.6231,33.5521 96.6505,33.5678 C96.7217,33.6094 96.7657,33.6898 96.7607,33.7727 C96.759,33.8095 96.7466,33.8397 96.7309,33.8724 L88.3282,48.3599 C88.3075,48.3897 88.2876,48.4152 88.257,48.4352 C88.155,48.5011 88.0141,48.471 87.9486,48.3691 C87.9362,48.3494 87.9262,48.3279 87.9204,48.3053 C87.9047,48.2453 87.9171,48.1908 87.9428,48.1362 L96.3454,33.6488 C96.3637,33.6233 96.3661,33.6155 96.3894,33.5947 C96.4358,33.5532 96.4905,33.5395 96.5502,33.538 C96.5618,33.5396 96.5734,33.5411 96.585,33.5427 Z" id="Fill-29" fill="#A7C7D9"></path>
            <path d="M100.179,34.5586 C100.21,34.5691 100.219,34.57 100.246,34.588 C100.288,34.615 100.319,34.6557 100.335,34.7022 C100.346,34.7334 100.345,34.7422 100.347,34.7746 L100.347,51.5077 C100.344,51.5459 100.339,51.5794 100.32,51.6138 C100.252,51.7395 100.079,51.7684 99.9735,51.6716 C99.9371,51.6382 99.913,51.5929 99.9047,51.5444 C99.9023,51.5323 99.9023,51.5199 99.9014,51.5077 L99.9014,34.7746 C99.9039,34.7422 99.9031,34.7334 99.9139,34.7022 C99.9379,34.6317 99.9976,34.5769 100.07,34.5586 C100.101,34.5505 100.11,34.5525 100.143,34.5525 C100.155,34.5545 100.167,34.5566 100.179,34.5586 Z" id="Fill-30" fill="#A7C7D9"></path>
            <path d="M123.339,28.5632 C123.328,28.594 123.327,28.6028 123.31,28.6303 C123.282,28.6716 123.242,28.7033 123.195,28.7193 C123.164,28.73 123.156,28.7286 123.123,28.7313 L106.39,28.7313 C106.352,28.7281 106.318,28.723 106.284,28.7044 C106.158,28.6365 106.129,28.4627 106.226,28.3575 C106.259,28.3212 106.305,28.2968 106.353,28.2887 C106.365,28.2867 106.378,28.2867 106.39,28.2856 L123.123,28.2856 C123.156,28.2883 123.164,28.287 123.195,28.2977 C123.266,28.3219 123.321,28.3815 123.339,28.4538 C123.347,28.4857 123.345,28.4943 123.345,28.5269 C123.343,28.539 123.341,28.5511 123.339,28.5632 Z" id="Fill-31" fill="#A7C7D9"></path>
            <path d="M94.0742,28.5632 C94.0634,28.594 94.0626,28.6028 94.0452,28.6303 C94.0179,28.6716 93.9772,28.7033 93.9308,28.7193 C93.8993,28.73 93.891,28.7286 93.8579,28.7313 L77.1252,28.7313 C77.087,28.7281 77.0535,28.723 77.0191,28.7044 C76.8934,28.6365 76.8645,28.4627 76.9613,28.3575 C76.9947,28.3212 77.0399,28.2968 77.0885,28.2887 C77.1006,28.2867 77.113,28.2867 77.1252,28.2856 L93.8579,28.2856 C93.891,28.2883 93.8993,28.287 93.9308,28.2977 C94.0013,28.3219 94.056,28.3815 94.0742,28.4538 C94.0825,28.4857 94.08,28.4943 94.08,28.5269 C94.0784,28.539 94.0767,28.5511 94.0742,28.5632 Z" id="Fill-32" fill="#A7C7D9"></path>
            <path d="M102.791,33.8287 C102.838,33.8374 102.88,33.8515 102.917,33.8844 C102.94,33.9052 102.944,33.913 102.961,33.9385 L111.364,48.426 C111.39,48.4805 111.403,48.5351 111.386,48.595 C111.355,48.7124 111.231,48.7844 111.113,48.7532 C111.091,48.7471 111.069,48.7376 111.049,48.7249 C111.019,48.7049 110.999,48.6795 110.978,48.6496 L102.575,34.1621 C102.56,34.1294 102.547,34.0993 102.546,34.0624 C102.541,33.9796 102.585,33.8992 102.656,33.8576 C102.688,33.839 102.72,33.8326 102.756,33.8278 C102.768,33.8281 102.779,33.8284 102.791,33.8287 Z" id="Fill-33" fill="#A7C7D9"></path>
            <path d="M105.205,31.6592 C105.238,31.669 105.238,31.6689 105.269,31.684 L119.757,40.0143 C119.807,40.0484 119.845,40.0896 119.861,40.1495 C119.893,40.2667 119.821,40.391 119.704,40.4227 C119.682,40.4287 119.658,40.4312 119.634,40.4301 C119.598,40.4282 119.568,40.4163 119.535,40.4007 L105.047,32.0704 C105.017,32.0499 104.992,32.0298 104.972,31.9989 C104.906,31.8972 104.935,31.7568 105.037,31.6905 C105.078,31.6636 105.121,31.656 105.17,31.6546 C105.182,31.6562 105.193,31.6577 105.205,31.6592 Z" id="Fill-34" fill="#A7C7D9"></path>
            <path d="M119.959,17.0232 C120.007,17.0324 120.049,17.0465 120.085,17.0796 C120.166,17.1517 120.181,17.2761 120.123,17.3664 C120.102,17.3971 120.077,17.4178 120.047,17.4377 L105.56,25.7684 C105.526,25.784 105.497,25.7959 105.459,25.7977 C105.338,25.8038 105.232,25.7077 105.225,25.5864 C105.225,25.5631 105.227,25.5397 105.233,25.5171 C105.25,25.4572 105.288,25.4161 105.337,25.3819 L119.825,17.0514 C119.859,17.0357 119.887,17.0274 119.924,17.0224 C119.936,17.0224 119.948,17.0232 119.959,17.0232 Z" id="Fill-35" fill="#A7C7D9"></path>
            <path d="M111.651,8.4789 C111.681,8.488 111.689,8.4888 111.717,8.5037 C111.789,8.5452 111.832,8.6256 111.828,8.7085 C111.826,8.7458 111.814,8.7756 111.799,8.808 L103.468,23.2958 C103.434,23.3456 103.393,23.3837 103.333,23.3999 C103.311,23.406 103.288,23.4085 103.263,23.4073 C103.142,23.4012 103.046,23.2947 103.053,23.1735 C103.055,23.1366 103.066,23.1064 103.082,23.0736 L111.412,8.5858 C111.43,8.5609 111.433,8.5527 111.456,8.5319 C111.502,8.4905 111.557,8.4764 111.616,8.4747 C111.628,8.4764 111.64,8.4781 111.651,8.4789 Z" id="Fill-36" fill="#A7C7D9"></path>
            <path d="M100.186,23.6273 C100.386,23.6312 100.584,23.6447 100.781,23.6724 C101.241,23.7367 101.69,23.8699 102.11,24.0666 C102.692,24.3387 103.214,24.7293 103.641,25.2083 C104.212,25.8498 104.601,26.6503 104.751,27.4959 C104.843,28.0053 104.848,28.5302 104.77,29.0417 C104.7,29.4994 104.562,29.9481 104.36,30.3651 C104.121,30.8574 103.799,31.3077 103.407,31.6895 C102.987,32.0984 102.493,32.428 101.954,32.6568 C101.396,32.8935 100.791,33.0193 100.185,33.0264 C99.5574,33.0337 98.9291,32.9172 98.3481,32.6785 C97.8582,32.4773 97.4031,32.1944 97.0069,31.8428 C96.541,31.4301 96.1606,30.9248 95.8887,30.3651 C95.6351,29.8409 95.485,29.2691 95.4386,28.6889 C95.4212,28.4675 95.4187,28.2439 95.4345,28.0223 C95.4684,27.5362 95.5721,27.0567 95.7511,26.6032 C95.9674,26.0576 96.2849,25.559 96.6828,25.1276 C97.079,24.6978 97.5614,24.3444 98.0878,24.0908 C98.4873,23.8984 98.9142,23.7626 99.3519,23.6902 C99.5674,23.6545 99.7854,23.6353 100.003,23.6285 C100.065,23.6272 100.125,23.6268 100.186,23.6273 Z M100.07,24.098 C99.8724,24.1019 99.676,24.1166 99.4812,24.1465 C99.0858,24.2069 98.7003,24.3239 98.3381,24.493 C97.5216,24.8747 96.837,25.5195 96.4068,26.3116 C96.2087,26.6758 96.0644,27.0689 95.9815,27.4749 C95.8879,27.9312 95.8705,28.4031 95.9293,28.8651 C95.9848,29.2966 96.1067,29.7191 96.2907,30.1132 C96.5062,30.5749 96.8063,30.9963 97.171,31.3523 C97.5482,31.7205 97.9941,32.0178 98.479,32.2233 C98.9813,32.436 99.5243,32.5486 100.07,32.5555 C100.618,32.5624 101.166,32.4634 101.674,32.2623 C102.166,32.0686 102.619,31.7818 103.005,31.4223 C103.378,31.0754 103.687,30.6616 103.914,30.2057 C104.107,29.8172 104.239,29.3992 104.305,28.9704 C104.373,28.5272 104.37,28.0731 104.296,27.6308 C104.232,27.2372 104.11,26.8533 103.937,26.494 C103.53,25.6508 102.842,24.9544 102.004,24.5376 C101.647,24.3602 101.265,24.234 100.873,24.1639 C100.68,24.1292 100.484,24.1096 100.288,24.1009 C100.216,24.0985 100.143,24.0976 100.07,24.098 Z" id="Fill-37" fill="#5696B9"></path>
            <path d="M39,88.5591 C39,87.7093 38.3111,87 37.1604,87 L35,87 L35,92 L36.088,92 L36.088,90.118 L37.1604,90.118 C38.3111,90.118 39,89.4087 39,88.5591 Z M37.9119,88.5591 C37.9119,88.9663 37.5988,89.2402 37.1057,89.2402 L36.088,89.2402 L36.088,87.8708 L37.1057,87.8708 C37.5988,87.8708 37.9119,88.1517 37.9119,88.5591 Z" id="Fill-38" fill="#1D2961"></path>
            <polygon id="Fill-39" fill="#1D2961" points="45 92 45 91.1292 42.8891 91.1292 42.8891 89.9143 44.6865 89.9143 44.6865 89.0436 42.8891 89.0436 42.8891 87.8708 45 87.8708 45 87 42 87 42 92"></polygon>
            <path d="M53.9983,89.479 C53.9983,88.7276 54.0602,88.0393 53.4415,87.4775 C53.078,87.1475 52.5599,87 51.9876,87 L50,87 L50,92 L51.9876,92 C52.5599,92 53.078,91.8526 53.4415,91.5225 C54.0602,90.9607 53.9983,90.2303 53.9983,89.479 Z M52.9233,89.479 C52.9233,90.2374 52.8924,90.5956 52.6914,90.8202 C52.5057,91.0239 52.2583,91.1292 51.8871,91.1292 L51.0751,91.1292 L51.0751,87.8708 L51.8871,87.8708 C52.2583,87.8708 52.5057,87.9762 52.6914,88.1798 C52.8924,88.4046 52.9233,88.7205 52.9233,89.479 Z" id="Fill-40" fill="#1D2961"></path>
            <polygon id="Fill-41" fill="#1D2961" points="58 92 58.7782 92 58.7782 87 58 87"></polygon>
            <path d="M67,92 L65.3439,87 L64.6497,87 L63,92 L63.9235,92 L64.1975,91.1152 L65.8089,91.1152 L66.0764,92 L67,92 Z M65.5733,90.2935 L64.4459,90.2935 L65.0191,88.4747 L65.5733,90.2935 Z" id="Fill-42" fill="#1D2961"></path>
            <polygon id="Fill-43" fill="#1D2961" points="74 87.8708 74 87 70 87 70 87.8708 71.4559 87.8708 71.4559 92 72.544 92 72.544 87.8708"></polygon>
            <path d="M82,92 L80.82,89.8441 C81.3322,89.6685 81.7849,89.2332 81.7849,88.5309 C81.7849,87.6953 81.1466,87 80.0705,87 L78,87 L78,92 L79.0315,92 L79.0315,90.0056 L79.7737,90.0056 L80.8052,92 L82,92 Z M80.7532,88.5309 C80.7532,88.9171 80.4564,89.191 80.0037,89.191 L79.0315,89.191 L79.0315,87.8708 L80.0037,87.8708 C80.4564,87.8708 80.7532,88.1447 80.7532,88.5309 Z" id="Fill-44" fill="#1D2961"></path>
            <polygon id="Fill-45" fill="#1D2961" points="86 92 86.7782 92 86.7782 87 86 87"></polygon>
            <path d="M95,90.4461 L93.9229,90.4461 C93.8166,90.8398 93.542,91.1437 93.0074,91.1437 C92.7169,91.1437 92.4807,91.0469 92.3281,90.8881 C92.1213,90.681 92.0602,90.4461 92.0602,89.5 C92.0602,88.5539 92.1213,88.3191 92.3281,88.1119 C92.4807,87.9531 92.7169,87.8563 93.0074,87.8563 C93.542,87.8563 93.8166,88.1602 93.9229,88.5539 L95,88.5539 C94.809,87.5248 94.0144,87 92.9995,87 C92.4038,87 91.9155,87.1934 91.5335,87.5387 C90.9842,88.0359 91,88.6506 91,89.5 C91,90.3495 90.9842,90.9641 91.5335,91.4613 C91.9155,91.8066 92.4038,92 92.9995,92 C94.0076,92 94.809,91.4752 95,90.4461 Z" id="Fill-46" fill="#1D2961"></path>
            <path d="M107.998,89.479 C107.998,88.7276 108.06,88.0393 107.442,87.4775 C107.078,87.1475 106.56,87 105.988,87 L104,87 L104,92 L105.988,92 C106.56,92 107.078,91.8526 107.442,91.5225 C108.06,90.9607 107.998,90.2303 107.998,89.479 Z M106.923,89.479 C106.923,90.2374 106.892,90.5956 106.691,90.8202 C106.505,91.0239 106.258,91.1292 105.887,91.1292 L105.075,91.1292 L105.075,87.8708 L105.887,87.8708 C106.258,87.8708 106.505,87.9762 106.691,88.1798 C106.892,88.4046 106.923,88.7205 106.923,89.479 Z" id="Fill-47" fill="#1D2961"></path>
            <polygon id="Fill-48" fill="#1D2961" points="114 92 114 91.1292 111.889 91.1292 111.889 89.9143 113.687 89.9143 113.687 89.0436 111.889 89.0436 111.889 87.8708 114 87.8708 114 87 111 87 111 92"></polygon>
            <polygon id="Fill-49" fill="#1D2961" points="123 92 123 87 121.98 87 121.98 90.0618 119.911 87 119 87 119 92 120.02 92 120.02 88.9312 122.089 92"></polygon>
            <polygon id="Fill-50" fill="#1D2961" points="131 87.8708 131 87 127 87 127 87.8708 128.456 87.8708 128.456 92 129.544 92 129.544 87.8708"></polygon>
            <polygon id="Fill-51" fill="#1D2961" points="134 92 134.778 92 134.778 87 134 87"></polygon>
            <path d="M143,90.5083 C143,90.0732 142.87,89.7141 142.58,89.4654 C142.351,89.2721 142.038,89.1479 141.542,89.0857 L140.901,89.0028 C140.68,88.9752 140.503,88.8992 140.397,88.8094 C140.282,88.7127 140.237,88.5815 140.237,88.4572 C140.237,88.1188 140.511,87.8357 141.076,87.8357 C141.435,87.8357 141.847,87.8771 142.191,88.174 L142.862,87.5732 C142.396,87.1657 141.855,87 141.107,87 C139.931,87 139.214,87.6146 139.214,88.4917 C139.214,88.9061 139.344,89.2237 139.602,89.4586 C139.847,89.6727 140.19,89.8039 140.656,89.8661 L141.313,89.9489 C141.565,89.9834 141.687,90.0318 141.794,90.1216 C141.908,90.2182 141.961,90.3633 141.961,90.5359 C141.961,90.9296 141.626,91.1437 140.999,91.1437 C140.496,91.1437 140.031,91.0401 139.687,90.7293 L139,91.3508 C139.535,91.8412 140.16,92 140.985,92 C142.122,92 143,91.4613 143,90.5083 Z" id="Fill-52" fill="#1D2961"></path>
            <polygon id="Fill-53" fill="#1D2961" points="151 87.8708 151 87 147 87 147 87.8708 148.456 87.8708 148.456 92 149.544 92 149.544 87.8708"></polygon>
            <path d="M158,92 L156.82,89.8441 C157.332,89.6685 157.785,89.2332 157.785,88.5309 C157.785,87.6953 157.146,87 156.07,87 L154,87 L154,92 L155.032,92 L155.032,90.0056 L155.773,90.0056 L156.805,92 L158,92 Z M156.753,88.5309 C156.753,88.9171 156.456,89.191 156.004,89.191 L155.032,89.191 L155.032,87.8708 L156.004,87.8708 C156.456,87.8708 156.753,88.1447 156.753,88.5309 Z" id="Fill-54" fill="#1D2961"></path>
            <polygon id="Fill-55" fill="#1D2961" points="165 87 163.933 87 163.008 89.0155 162.067 87 161 87 162.513 89.9495 162.513 92 163.488 92 163.488 89.9495"></polygon>
            <path d="M61,101.5 C61,100.6505 61.0075,100.0359 60.46,99.5387 C60.0798,99.1934 59.6159,99 59,99 C58.384,99 57.9126,99.1934 57.5324,99.5387 C56.9848,100.0359 57,100.6505 57,101.5 C57,102.3495 56.9848,102.9641 57.5324,103.4613 C57.9126,103.8066 58.384,104 59,104 C59.6159,104 60.0798,103.8066 60.46,103.4613 C61.0075,102.9641 61,102.3495 61,101.5 Z M59.9429,101.5 C59.9429,102.4461 59.8821,102.674 59.6767,102.8812 C59.5247,103.0401 59.289,103.1437 59,103.1437 C58.7111,103.1437 58.4676,103.0401 58.3156,102.8812 C58.1103,102.674 58.057,102.4461 58.057,101.5 C58.057,100.5539 58.1103,100.326 58.3156,100.1188 C58.4676,99.9599 58.7111,99.8563 59,99.8563 C59.289,99.8563 59.5247,99.9599 59.6767,100.1188 C59.8821,100.326 59.9429,100.5539 59.9429,101.5 Z" id="Fill-56" fill="#1D2961"></path>
            <path d="M69,104 L67.8201,101.844 C68.3322,101.6685 68.7849,101.2331 68.7849,100.5309 C68.7849,99.6953 68.1466,99 67.0706,99 L65,99 L65,104 L66.0316,104 L66.0316,102.0056 L66.7737,102.0056 L67.8052,104 L69,104 Z M67.7532,100.5309 C67.7532,100.9171 67.4565,101.191 67.0038,101.191 L66.0316,101.191 L66.0316,99.8708 L67.0038,99.8708 C67.4565,99.8708 67.7532,100.1446 67.7532,100.5309 Z" id="Fill-57" fill="#1D2961"></path>
            <polygon id="Fill-58" fill="#1D2961" points="76 99.8708 76 99 72 99 72 99.8708 73.456 99.8708 73.456 104 74.544 104 74.544 99.8708"></polygon>
            <polygon id="Fill-59" fill="#1D2961" points="84 104 84 99 82.9287 99 82.9287 101.0436 81.0713 101.0436 81.0713 99 80 99 80 104 81.0713 104 81.0713 101.9073 82.9287 101.9073 82.9287 104"></polygon>
            <path d="M92,101.5 C92,100.6505 92.0079,100.0359 91.4596,99.5387 C91.0802,99.1934 90.6164,99 89.9995,99 C89.3836,99 88.9131,99.1934 88.5325,99.5387 C87.9854,100.0359 88,100.6505 88,101.5 C88,102.3495 87.9854,102.9641 88.5325,103.4613 C88.9131,103.8066 89.3836,104 89.9995,104 C90.6164,104 91.0802,103.8066 91.4596,103.4613 C92.0079,102.9641 92,102.3495 92,101.5 Z M90.9429,101.5 C90.9429,102.4461 90.8821,102.674 90.6772,102.8812 C90.5252,103.0401 90.2888,103.1437 89.9995,103.1437 C89.7112,103.1437 89.4681,103.0401 89.3161,102.8812 C89.1101,102.674 89.0572,102.4461 89.0572,101.5 C89.0572,100.5539 89.1101,100.326 89.3161,100.1188 C89.4681,99.9599 89.7112,99.8563 89.9995,99.8563 C90.2888,99.8563 90.5252,99.9599 90.6772,100.1188 C90.8821,100.326 90.9429,100.5539 90.9429,101.5 Z" id="Fill-60" fill="#1D2961"></path>
            <path d="M99.9983,101.4789 C99.9983,100.7275 100.06,100.0393 99.4418,99.4775 C99.0777,99.1474 98.5602,99 97.9877,99 L96,99 L96,104 L97.9877,104 C98.5602,104 99.0777,103.8525 99.4418,103.5225 C100.06,102.9607 99.9983,102.2303 99.9983,101.4789 Z M98.9231,101.4789 C98.9231,102.2374 98.8922,102.5954 98.6919,102.8202 C98.5064,103.0238 98.2591,103.1292 97.8869,103.1292 L97.0751,103.1292 L97.0751,99.8708 L97.8869,99.8708 C98.2591,99.8708 98.5064,99.9761 98.6919,100.1798 C98.8922,100.4045 98.9231,100.7205 98.9231,101.4789 Z" id="Fill-61" fill="#1D2961"></path>
            <path d="M107,101.5 C107,100.6505 107.008,100.0359 106.461,99.5387 C106.08,99.1934 105.616,99 105,99 C104.384,99 103.912,99.1934 103.532,99.5387 C102.984,100.0359 103,100.6505 103,101.5 C103,102.3495 102.984,102.9641 103.532,103.4613 C103.912,103.8066 104.384,104 105,104 C105.616,104 106.08,103.8066 106.461,103.4613 C107.008,102.9641 107,102.3495 107,101.5 Z M105.943,101.5 C105.943,102.4461 105.882,102.674 105.677,102.8812 C105.525,103.0401 105.289,103.1437 105,103.1437 C104.711,103.1437 104.467,103.0401 104.315,102.8812 C104.11,102.674 104.056,102.4461 104.056,101.5 C104.056,100.5539 104.11,100.326 104.315,100.1188 C104.467,99.9599 104.711,99.8563 105,99.8563 C105.289,99.8563 105.525,99.9599 105.677,100.1188 C105.882,100.326 105.943,100.5539 105.943,101.5 Z" id="Fill-62" fill="#1D2961"></path>
            <polygon id="Fill-63" fill="#1D2961" points="115 104 115 99 113.98 99 113.98 102.0618 111.91 99 111 99 111 104 112.02 104 112.02 100.9312 114.089 104"></polygon>
            <polygon id="Fill-64" fill="#1D2961" points="123 99.8708 123 99 119 99 119 99.8708 120.457 99.8708 120.457 104 121.543 104 121.543 99.8708"></polygon>
            <polygon id="Fill-65" fill="#1D2961" points="127 104 127.778 104 127.778 99 127 99"></polygon>
            <path d="M136,102.4461 L134.923,102.4461 C134.817,102.8398 134.542,103.1437 134.007,103.1437 C133.717,103.1437 133.481,103.0469 133.328,102.8881 C133.121,102.681 133.06,102.4461 133.06,101.5 C133.06,100.5539 133.121,100.319 133.328,100.1119 C133.481,99.9531 133.717,99.8563 134.007,99.8563 C134.542,99.8563 134.817,100.1602 134.923,100.5539 L136,100.5539 C135.809,99.5248 135.016,99 133.999,99 C133.404,99 132.916,99.1934 132.534,99.5387 C131.984,100.0359 132,100.6505 132,101.5 C132,102.3495 131.984,102.9641 132.534,103.4613 C132.916,103.8066 133.404,104 133.999,104 C135.008,104 135.809,103.4752 136,102.4461 Z" id="Fill-66" fill="#1D2961"></path>
            <path d="M143,102.5083 C143,102.0732 142.87,101.7141 142.58,101.4654 C142.351,101.2721 142.038,101.1478 141.542,101.0856 L140.901,101.0028 C140.679,100.9752 140.504,100.8992 140.397,100.8094 C140.282,100.7127 140.237,100.5815 140.237,100.4572 C140.237,100.1188 140.512,99.8356 141.077,99.8356 C141.435,99.8356 141.847,99.8771 142.191,100.174 L142.862,99.5732 C142.397,99.1657 141.854,99 141.107,99 C139.931,99 139.215,99.6146 139.215,100.4917 C139.215,100.906 139.344,101.2237 139.603,101.4586 C139.847,101.6726 140.191,101.8039 140.656,101.8661 L141.313,101.9489 C141.565,101.9834 141.687,102.0318 141.793,102.1216 C141.908,102.2182 141.962,102.3633 141.962,102.5359 C141.962,102.9296 141.626,103.1437 141,103.1437 C140.496,103.1437 140.031,103.0401 139.687,102.7292 L139,103.3508 C139.534,103.8412 140.16,104 140.985,104 C142.122,104 143,103.4613 143,102.5083 Z" id="Fill-67" fill="#1D2961"></path>
        </g>
    </g>
</svg>
