<?xml version="1.0" encoding="UTF-8"?>
<svg width="291px" height="72px" viewBox="0 0 291 72" version="1.1" xmlns="http://www.w3.org/2000/svg" xmlns:xlink="http://www.w3.org/1999/xlink">
    <!-- Generator: Sketch 47.1 (45422) - http://www.bohemiancoding.com/sketch -->
    <title>Group 17</title>
    <desc>Created with Sketch.</desc>
    <defs></defs>
    <g id="Welcome" stroke="none" stroke-width="1" fill="none" fill-rule="evenodd">
        <g id="Group-17">
            <g id="Group-15" transform="translate(0.000000, 29.000000)" fill="#1D2961">
                <path d="M14.0632911,11.9636871 C13.9351149,12.0484861 13.7106602,12.2054831 13.3902197,12.4345748 C13.0696816,12.6636664 12.6449638,12.8927581 12.1160662,13.1218497 C11.5871686,13.3509414 10.9581882,13.554521 10.22893,13.732692 C9.49976926,13.9109662 8.67033065,14 7.74080924,14 C6.60292833,14 5.56122835,13.8302986 4.61561176,13.4908959 C3.67009271,13.1514932 2.85274987,12.6763708 2.16358325,12.0654252 C1.47441663,11.454583 0.941519637,10.7163873 0.564892273,9.85094139 C0.188264909,8.98549548 0,8.02667768 0,6.97448799 C0,5.95638317 0.192361865,5.0187393 0.576988049,4.16176297 C0.961614234,3.30478664 1.49051182,2.56659092 2.16358325,1.94727911 C2.83665469,1.32786401 3.62600165,0.84840347 4.5315266,0.509104055 C5.43705155,0.169701352 6.41066401,0 7.45236399,0 C8.31779729,0 9.09504848,0.0890338193 9.7842151,0.267204745 C10.4733817,0.445375671 11.0823651,0.665997757 11.6112626,0.929071003 C12.1400627,1.19204096 12.5928739,1.46358378 12.9695013,1.74359618 C13.3461286,2.02360857 13.6626673,2.26540459 13.9190197,2.46908753 L12.7891376,4.35274155 C12.4526019,4.11507702 12.104068,3.873281 11.7434383,3.62725019 C11.3828085,3.38121938 10.9941829,3.15636251 10.5775615,2.95267957 C10.1608425,2.74909992 9.69603299,2.57939857 9.18323059,2.44357552 C8.67033065,2.30785575 8.09344015,2.23999587 7.45236399,2.23999587 C6.63502116,2.23999587 5.89376466,2.36724606 5.22869204,2.62174644 C4.56352188,2.87635012 4.00262902,3.22422239 3.54591591,3.66546656 C3.08910525,4.10660745 2.73657189,4.62418108 2.48812074,5.21818745 C2.23966959,5.81209054 2.11549279,6.44844479 2.11549279,7.12725019 C2.11549279,7.70421413 2.22767136,8.27270849 2.4520285,8.83273328 C2.67638565,9.39275807 3.02101773,9.88905448 3.48572966,10.3218291 C3.95053914,10.7545004 4.53552601,11.1023727 5.24069027,11.3654459 C5.94585453,11.6285192 6.77119619,11.7600041 7.71681278,11.7600041 C8.43797468,11.7600041 9.09504848,11.6836747 9.68803417,11.5309125 C10.2810199,11.3781503 10.805918,11.1999793 11.2626311,10.9963997 C11.7194418,10.7927168 12.104068,10.5891371 12.4166072,10.3854542 C12.729049,10.1817712 12.9655019,10.0206427 13.1257709,9.90186213 L14.0632911,11.9636871 Z" id="Fill-1"></path>
                <path d="M30.0443038,11.7600041 C30.9154442,11.7600041 31.6938934,11.6327539 32.3794549,11.3781503 C33.0651147,11.1236499 33.6458095,10.7757776 34.1217357,10.3345334 C34.597662,9.89328926 34.9606699,9.38852328 35.2106612,8.82002892 C35.4607508,8.25153456 35.5857465,7.64482382 35.5857465,7 C35.5857465,6.37211533 35.4607508,5.76963938 35.2106612,5.19267544 C34.9606699,4.6157115 34.597662,4.10660745 34.1217357,3.66546656 C33.6458095,3.22422239 33.0651147,2.87635012 32.3794549,2.62174644 C31.6938934,2.36724606 30.9154442,2.23999587 30.0443038,2.23999587 C29.1731634,2.23999587 28.3948124,2.36724606 27.7091527,2.62174644 C27.0235911,2.87635012 26.4427981,3.22422239 25.9668719,3.66546656 C25.4910438,4.10660745 25.1280359,4.6157115 24.8779464,5.19267544 C24.627955,5.76963938 24.5029593,6.37211533 24.5029593,7 C24.5029593,7.64482382 24.627955,8.25153456 24.8779464,8.82002892 C25.1280359,9.38852328 25.4910438,9.89328926 25.9668719,10.3345334 C26.4427981,10.7757776 27.0235911,11.1236499 27.7091527,11.3781503 C28.3948124,11.6327539 29.1731634,11.7600041 30.0443038,11.7600041 Z M37.7151899,7 C37.7151899,7.95024494 37.5417866,8.84967243 37.19498,9.69817919 C36.8480753,10.5466859 36.3439685,11.2891164 35.6825617,11.9254707 C35.0211548,12.5618249 34.2185509,13.0666942 33.2748482,13.4399752 C32.3310473,13.8133595 31.2542974,14 30.0443038,14 C28.8505115,14 27.7818131,13.8133595 26.8380123,13.4399752 C25.8943096,13.0666942 25.0917057,12.5618249 24.4302988,11.9254707 C23.7688919,11.2891164 23.2607594,10.5466859 22.9058031,9.69817919 C22.550945,8.84967243 22.3734177,7.95024494 22.3734177,7 C22.3734177,6.04965177 22.5469192,5.15032757 22.8937258,4.30182081 C23.2405323,3.45331405 23.7447372,2.71088355 24.4061441,2.0745293 C25.067551,1.43817506 25.8701549,0.93330579 26.8138576,0.559921502 C27.7575603,0.186640501 28.8344084,0 30.0443038,0 C31.2542974,0 32.3310473,0.186640501 33.2748482,0.559921502 C34.2185509,0.93330579 35.0211548,1.43817506 35.6825617,2.0745293 C36.3439685,2.71088355 36.8480753,3.45331405 37.19498,4.30182081 C37.5417866,5.15032757 37.7151899,6.04965177 37.7151899,7 Z" id="Fill-2"></path>
                <path d="M49.4414106,14 L47.3037975,14 L47.3037975,0.666666667 L54.3239056,0.666666667 C54.8259051,0.666666667 55.3724567,0.700924867 55.9635604,0.769650159 C56.5546641,0.838271005 57.1092982,1.01415762 57.6275612,1.29731 C58.1457257,1.58046238 58.5789257,2.00942101 58.9270628,2.58429032 C59.2752985,3.15915963 59.4493671,3.94417376 59.4493671,4.93954159 C59.4493671,5.78032974 59.3238918,6.47102936 59.0728428,7.01153603 C58.8218923,7.55214714 58.4736566,7.98110577 58.0283329,8.29862079 C57.5830091,8.61603138 57.04454,8.83912746 56.4129254,8.9678046 C55.7814094,9.09648175 55.0850366,9.16082032 54.3239056,9.16082032 L49.4414106,9.16082032 L49.4414106,14 Z M54.3239056,6.89570571 C54.8259051,6.89570571 55.2631464,6.87857661 55.6356294,6.84421397 C56.0081125,6.80995577 56.3198786,6.72410138 56.570829,6.58685968 C56.8218781,6.44961799 57.0080703,6.25221556 57.1296029,5.99486127 C57.2510369,5.73740254 57.3117539,5.38562931 57.3117539,4.93954159 C57.3117539,4.44185767 57.2389132,4.0557218 57.0931333,3.78123841 C56.9473533,3.50665058 56.7408564,3.30496587 56.473741,3.17628873 C56.206527,3.04761159 55.8907197,2.97470847 55.5263191,2.95747492 C55.1620171,2.94034582 54.7611469,2.93178127 54.3239056,2.93178127 L49.4414106,2.93178127 L49.4414106,6.89570571 L54.3239056,6.89570571 Z" id="Fill-3"></path>
                <path d="M70.5363473,14 L68.3987342,14 L68.3987342,0.666666667 L75.4188423,0.666666667 C75.9208418,0.666666667 76.4673934,0.700924867 77.0584971,0.769650159 C77.6496008,0.838271005 78.2042349,1.01415762 78.7224979,1.29731 C79.2406624,1.58046238 79.6738624,2.00942101 80.0220981,2.58429032 C80.3702352,3.15915963 80.5443038,3.94417376 80.5443038,4.93954159 C80.5443038,5.78032974 80.4188286,6.47102936 80.1677795,7.01153603 C79.916829,7.55214714 79.5685933,7.98110577 79.1232696,8.29862079 C78.6779458,8.61603138 78.1394767,8.83912746 77.5079607,8.9678046 C76.8763461,9.09648175 76.1799733,9.16082032 75.4188423,9.16082032 L70.5363473,9.16082032 L70.5363473,14 Z M75.4188423,6.89570571 C75.9208418,6.89570571 76.3580831,6.87857661 76.7305662,6.84421397 C77.1030492,6.80995577 77.4148153,6.72410138 77.6657658,6.58685968 C77.9168148,6.44961799 78.103007,6.25221556 78.2245396,5.99486127 C78.3459736,5.73740254 78.4066906,5.38562931 78.4066906,4.93954159 C78.4066906,4.44185767 78.3338499,4.0557218 78.18807,3.78123841 C78.04229,3.50665058 77.8358916,3.30496587 77.5686777,3.17628873 C77.3014637,3.04761159 76.9856564,2.97470847 76.6212558,2.95747492 C76.2569538,2.94034582 75.8560836,2.93178127 75.4188423,2.93178127 L70.5363473,2.93178127 L70.5363473,6.89570571 L75.4188423,6.89570571 Z" id="Fill-4"></path>
                <polygon id="Fill-5" points="101 14 89.4936709 14 89.4936709 0.666666667 100.752531 0.666666667 100.752531 2.93178127 91.666493 2.93178127 91.666493 5.99486127 96.6541553 5.99486127 96.6541553 8.25997587 91.666493 8.25997587 91.666493 11.7348854 101 11.7348854"></polygon>
            </g>
            <g id="Group-14" transform="translate(190.000000, 29.000000)" fill="#1D2961">
                <path d="M11.8424344,3.76720475 C11.5845211,3.61454583 11.2981688,3.44907927 10.984358,3.27090834 C10.6695666,3.09273741 10.3077035,2.92727085 9.89680752,2.77450865 C9.48591153,2.62174644 9.01813733,2.49449625 8.49446559,2.39265478 C7.97079385,2.2909166 7.36278546,2.23999587 6.67044042,2.23999587 C5.51032119,2.23999587 4.6365543,2.39265478 4.04815908,2.69817919 C3.45976387,3.00360031 3.16556626,3.4363749 3.16556626,3.99629641 C3.16556626,4.31875996 3.20577326,4.58606799 3.28716794,4.79811722 C3.36758195,5.01026973 3.54900381,5.17997108 3.83045285,5.30722127 C4.11288255,5.43447146 4.51887525,5.52784336 5.05137292,5.58723367 C5.58288993,5.64662397 6.29975144,5.67637077 7.20195743,5.67637077 C8.6199899,5.67637077 9.74382476,5.78234374 10.573462,5.99449625 C11.4030993,6.20664876 12.0356241,6.49089595 12.4700559,6.8472378 C12.9054684,7.20357965 13.1878981,7.61507702 13.3163644,8.08183321 C13.4448307,8.5484861 13.5095541,9.03631293 13.5095541,9.54541699 C13.5095541,10.4957652 13.320287,11.2636044 12.9417528,11.849038 C12.5632185,12.4345748 12.0758311,12.8841852 11.4795906,13.1981792 C10.8833502,13.5120699 10.2184636,13.7242224 9.48591153,13.8345334 C8.75237883,13.9448445 8.03943996,14 7.34709492,14 C6.28308024,14 5.34066724,13.9108629 4.51887525,13.732692 C3.69708327,13.554521 2.9841444,13.3467066 2.38005865,13.1090421 C1.77597289,12.8714808 1.28074025,12.62545 0.894360727,12.3709497 C0.507000544,12.116346 0.208880301,11.9127663 0,11.7600041 L1.01498175,9.80002066 C1.36899953,10.0375819 1.73968852,10.2709083 2.1270487,10.5 C2.51342823,10.7290917 2.94884069,10.9369061 3.43132476,11.1236499 C3.9147895,11.3102904 4.47474561,11.4630526 5.1111931,11.5818332 C5.74764059,11.7006138 6.50863174,11.7600041 7.3951472,11.7600041 C7.95902594,11.7600041 8.47485242,11.7260225 8.94164595,11.6581627 C9.40942015,11.5903028 9.81247087,11.4799917 10.1507981,11.3272295 C10.4891254,11.1745706 10.7509612,10.9708877 10.9363057,10.7163873 C11.1206696,10.4617836 11.2138321,10.1478929 11.2138321,9.77450865 C11.2138321,9.35030691 11.145186,9.02360857 11.0078938,8.79451691 C10.8715823,8.56542525 10.6058238,8.39148911 10.2106183,8.27270849 C9.81639351,8.15392788 9.26036003,8.07326034 8.54349852,8.03091247 C7.82663702,7.98846131 6.87932072,7.95024494 5.70351095,7.91636664 C4.99449472,7.8993242 4.34235669,7.82722953 3.7461162,7.69997934 C3.14987572,7.57272915 2.63797188,7.36904621 2.21138535,7.08903382 C1.78381816,6.80902142 1.45431684,6.43997521 1.21993941,5.98179189 C0.986542644,5.52360857 0.86984426,4.94664463 0.86984426,4.25090008 C0.86984426,3.69087529 0.97477474,3.15636251 1.18365504,2.64725845 C1.393516,2.1381544 1.72792062,1.68844065 2.18686888,1.29811722 C2.64581715,0.907793779 3.24205764,0.593903087 3.97559034,0.356341852 C4.70814238,0.118780617 5.59858047,0 6.64592396,0 C7.40299247,0 8.1120087,0.0720946704 8.77297266,0.216284011 C9.43295596,0.360576639 10.0291964,0.526043204 10.5616941,0.712683704 C11.0932111,0.899324205 11.5521594,1.09030278 11.9385389,1.28541285 C12.3258991,1.48052293 12.6240193,1.63751992 12.8328996,1.75630054 L11.8424344,3.76720475 Z" id="Fill-6"></path>
                <polygon id="Fill-7" points="34.0955414 13.3333333 22.5159236 13.3333333 22.5159236 0 33.8465065 0 33.8465065 2.2651146 24.7027926 2.2651146 24.7027926 5.3281946 29.7218033 5.3281946 29.7218033 7.59330921 24.7027926 7.59330921 24.7027926 11.0682187 34.0955414 11.0682187"></polygon>
                <path d="M58.5414013,13.3333333 L55.968193,13.3333333 L54.3357168,10.2187616 L46.5166977,10.2187616 L44.9334166,13.3333333 L42.4585987,13.3333333 L49.3870849,0 L51.5647239,0 L58.5414013,13.3333333 Z M50.4513068,2.54826698 L47.6552144,7.95364698 L53.2463953,7.95364698 L50.4513068,2.54826698 Z" id="Fill-8"></path>
                <path d="M81.0573248,13.3333333 L78.3818334,13.3333333 L74.757929,7.87646159 L70.3316734,7.87646159 L70.3316734,13.3333333 L68.1910828,13.3333333 L68.1910828,0 L75.9737924,0 C76.6063966,0 77.2103806,0.0643385713 77.7857445,0.193015714 C78.3611084,0.321692856 78.8723237,0.531942116 79.3184034,0.823659047 C79.7644832,1.11537598 80.1168072,1.50579413 80.3763624,1.99480905 C80.6359177,2.48392841 80.7652018,3.0973382 80.7652018,3.8352473 C80.7652018,4.5731564 80.6596033,5.18656619 80.4493932,5.67568556 C80.2381961,6.16470048 79.9667981,6.55511862 79.6342121,6.84683556 C79.3016261,7.13855249 78.9374592,7.3573663 78.5397377,7.50317254 C78.1430031,7.64908323 77.7571244,7.75634899 77.3840754,7.82496984 L81.0573248,13.3333333 Z M76.1928846,5.61134698 C76.9064148,5.61134698 77.4896739,5.48684767 77.9436489,5.23805794 C78.3976238,4.9892682 78.6246113,4.53879376 78.6246113,3.88673905 C78.6246113,3.50916772 78.5683579,3.21316852 78.4548641,2.99863698 C78.3413704,2.78420989 78.1745839,2.62117011 77.9564786,2.50962206 C77.7373863,2.39807402 77.4699359,2.32945317 77.1531403,2.30365508 C76.8373317,2.27796143 76.4761255,2.2651146 76.0714957,2.2651146 L70.3316734,2.2651146 L70.3316734,5.61134698 L76.1928846,5.61134698 Z" id="Fill-9"></path>
                <path d="M99.3320206,3.76720475 C99.0741261,3.61454583 98.7887752,3.44907927 98.4740066,3.27090834 C98.1602186,3.09273741 97.7974012,2.92727085 97.386535,2.77450865 C96.9756689,2.62174644 96.5089092,2.49449625 95.9852755,2.39265478 C95.4616417,2.2909166 94.8536775,2.23999587 94.1604021,2.23999587 C93.0003671,2.23999587 92.1266636,2.39265478 91.5383111,2.69817919 C90.9509392,3.00360031 90.6567629,3.4363749 90.6567629,3.99629641 C90.6567629,4.31875996 90.696967,4.58606799 90.7773752,4.79811722 C90.8577834,5.01026973 91.0391921,5.17997108 91.3216013,5.30722127 C91.6030299,5.43447146 92.0099737,5.52784336 92.5414521,5.58723367 C93.0729306,5.64662397 93.78974,5.67637077 94.6918805,5.67637077 C96.1098101,5.67637077 97.2335634,5.78234374 98.0631404,5.99449625 C98.893698,6.20664876 99.5251964,6.49089595 99.9605772,6.8472378 C100.395958,7.20357965 100.677387,7.61507702 100.806824,8.08183321 C100.935281,8.5484861 101,9.03631293 101,9.54541699 C101,10.4957652 100.810747,11.2636044 100.43224,11.849038 C100.052752,12.4345748 99.5654005,12.8841852 98.9701839,13.1981792 C98.3739866,13.5120699 97.7091483,13.7242224 96.9756689,13.8345334 C96.24317,13.9448445 95.5302829,14 94.8370075,14 C93.7740506,14 92.831706,13.9108629 92.0099737,13.732692 C91.1882414,13.554521 90.4753542,13.3467066 89.8713123,13.1090421 C89.2672704,12.8714808 88.7720737,12.62545 88.3847417,12.3709497 C87.9983902,12.116346 87.7002916,11.9127663 87.4904459,11.7600041 L88.5063345,9.80002066 C88.8603266,10.0375819 89.2309887,10.2709083 89.6173402,10.5 C90.0036917,10.7290917 90.4390725,10.9369061 90.9225021,11.1236499 C91.4059318,11.3102904 91.9658473,11.4630526 92.6022486,11.5818332 C93.2386498,11.7006138 93.9995858,11.7600041 94.8860369,11.7600041 C95.4498747,11.7600041 95.9646831,11.7260225 96.4324234,11.6581627 C96.899183,11.5903028 97.3022045,11.4799917 97.6405072,11.3272295 C97.9788099,11.1745706 98.2406267,10.9708877 98.4259578,10.7163873 C98.6112888,10.4617836 98.703464,10.1478929 98.703464,9.77450865 C98.703464,9.35030691 98.6358035,9.02360857 98.4985213,8.79451691 C98.361239,8.56542525 98.0954998,8.39148911 97.7013036,8.27270849 C97.3061268,8.15392788 96.7501337,8.07326034 96.0333243,8.03091247 C95.3165148,7.98846131 94.3702478,7.95024494 93.1945234,7.91636664 C92.4855586,7.8993242 91.8324874,7.82722953 91.2362902,7.69997934 C90.6400929,7.57272915 90.1292069,7.36904621 89.7016707,7.08903382 C89.2751151,6.80902142 88.9446571,6.43997521 88.7112773,5.98179189 C88.4778975,5.52360857 88.3612076,4.94664463 88.3612076,4.25090008 C88.3612076,3.69087529 88.4651498,3.15636251 88.6749956,2.64725845 C88.8848413,2.1381544 89.2192216,1.68844065 89.6781366,1.29811722 C90.1370516,0.907793779 90.7332488,0.593903087 91.4657476,0.356341852 C92.1992271,0.118780617 93.0896005,0 94.136868,0 C94.8938816,0 95.6028463,0.0720946704 96.2627817,0.216284011 C96.9236977,0.360576639 97.5198949,0.526043204 98.0513734,0.712683704 C98.5828518,0.899324205 99.0417667,1.09030278 99.4290988,1.28541285 C99.8154503,1.48052293 100.113549,1.63751992 100.323395,1.75630054 L99.3320206,3.76720475 Z" id="Fill-10"></path>
            </g>
            <g id="Group-13" transform="translate(111.000000, 0.000000)" fill="#5796B8">
                <path d="M25.4415206,0 C25.4574424,0.00314850827 25.472369,0.00419801103 25.4872957,0.00839602205 C25.5479975,0.0262375689 25.6017335,0.0661186737 25.6375575,0.120692817 C25.6614402,0.156375911 25.6624353,0.167920441 25.6763669,0.208851049 L31.5893189,23.8719897 C31.5923042,23.8877322 31.5962847,23.9034748 31.5972798,23.9202668 C31.6022553,23.9863855 31.5853385,24.0525042 31.5485193,24.1060288 C31.4549789,24.2475018 31.2559566,24.2649235 31.1405237,24.1427614 C31.1056948,24.1049793 31.0877827,24.0640487 31.071861,24.0157716 L25.1589089,0.352632926 C25.1519431,0.310652816 25.1469676,0.299108286 25.150948,0.25502917 C25.159904,0.156375911 25.2196107,0.0671681764 25.3051903,0.0251880662 C25.3430045,0.00629701654 25.3549459,0.0073465193 25.3947503,0 C25.4106721,0 25.4265939,0 25.4415206,0 Z" id="Fill-13"></path>
                <path d="M9.99808579,9.42434882 C10.0332062,9.43393737 10.0429051,9.43500276 10.0752689,9.45311447 C10.1077349,9.47016079 10.1135542,9.47868395 10.1411196,9.50318803 L27.0032887,27.0999926 C27.0492311,27.1559258 27.0808803,27.2162271 27.0839431,27.2917636 C27.0900687,27.4727742 26.92876,27.6175613 26.7582629,27.5838948 C26.7021111,27.5727082 26.6582107,27.5435164 26.6153311,27.5050556 L9.75295784,9.90803801 C9.72518824,9.87501077 9.70221707,9.84304893 9.68792389,9.80043314 C9.6461674,9.67578197 9.69384535,9.53408447 9.80104416,9.46376842 C9.83749176,9.43926434 9.87455192,9.42967579 9.91630841,9.42115263 C9.95755443,9.42008724 9.95735024,9.42008724 9.99808579,9.42434882 Z" id="Fill-14"></path>
                <path d="M0.293826958,26.2431929 L0.340291489,26.2514864 L23.0157873,32.4386195 C23.0308732,32.4440811 23.0459591,32.4483289 23.0600392,32.4550042 C23.1173656,32.4820085 23.163629,32.5292409 23.1907836,32.5869918 C23.2601786,32.7380948 23.1736862,32.9213603 23.0137758,32.9639402 C22.965501,32.9768861 22.9222548,32.9722337 22.8739799,32.9635357 L0.198685299,26.7764026 C0.137235453,26.7536461 0.0858428657,26.7247201 0.0475247134,26.6691943 C-0.0366545346,26.5476241 -0.00587932568,26.3752817 0.115109486,26.2907287 C0.15624367,26.2619038 0.198283008,26.2514864 0.246758991,26.2429907 C0.262448313,26.2430918 0.278137635,26.2430918 0.293826958,26.2431929 Z" id="Fill-15"></path>
                <path d="M22.9688461,39.0280374 C23.0171227,39.0367474 23.0593648,39.0475069 23.100601,39.076916 C23.2212926,39.1629917 23.2514655,39.3377047 23.1669814,39.4605674 C23.1277566,39.516619 23.0764627,39.5458232 23.0151112,39.5686742 L0.338778128,45.7476738 C0.323389956,45.7504405 0.308001783,45.7546418 0.292412458,45.7559739 C0.229451699,45.7616098 0.165485177,45.7440873 0.113788963,45.7070953 C-0.021787878,45.6102602 -0.0392881528,45.4058306 0.0778832272,45.2866569 C0.113386658,45.2504846 0.152812565,45.2325522 0.199077659,45.2153371 L22.8753101,39.0363375 L22.9215752,39.0280374 C22.9376674,39.0280374 22.9537597,39.0280374 22.9688461,39.0280374 Z" id="Fill-16"></path>
                <path d="M26.1963853,44.4122228 C26.2382448,44.4203693 26.2749995,44.4300626 26.3117542,44.4532647 C26.4189553,44.5216335 26.4659196,44.6594022 26.4240601,44.7799498 C26.4097666,44.8209917 26.3862845,44.8517216 26.3587185,44.8842045 L9.4959781,61.8258403 C9.44217333,61.8723476 9.38438681,61.9037992 9.31189842,61.9063773 C9.13853885,61.9124614 9.00009622,61.7491188 9.03286915,61.577011 C9.04369136,61.5197792 9.07176785,61.4759531 9.10882882,61.4327457 L25.9717734,44.4911098 C25.9993394,44.4672891 26.0054652,44.4594519 26.037115,44.4422308 C26.0697859,44.4250097 26.0799955,44.4244941 26.1147082,44.4151102 C26.1555468,44.4105729 26.1555468,44.4105729 26.1963853,44.4122228 Z" id="Fill-17"></path>
                <path d="M31.3606938,47.7759108 C31.4004288,47.7835719 31.4110894,47.7828373 31.447917,47.8015178 C31.5312636,47.8440212 31.5894124,47.9336456 31.5971655,48.0331349 C31.600073,48.0770026 31.5961964,48.0879171 31.5884432,48.1307353 L25.6611443,71.7924146 C25.6553294,71.8078417 25.6514529,71.8236886 25.6446688,71.8385911 C25.619471,71.8983057 25.5739211,71.9468959 25.5186798,71.9746018 C25.3733079,72.0471199 25.1978924,71.9577054 25.1571882,71.7907354 C25.1445893,71.7400462 25.1494351,71.695234 25.1581574,71.6446498 L31.0854563,47.9829705 C31.0999935,47.9421462 31.1009626,47.9302873 31.1242221,47.8942906 C31.1591114,47.840453 31.2114453,47.8009931 31.2705632,47.7840967 C31.2851004,47.7798988 31.3006068,47.7785345 31.3151439,47.7757009 C31.3306503,47.7758059 31.3461566,47.7758059 31.3606938,47.7759108 Z" id="Fill-18"></path>
                <path d="M37.6890451,47.7757009 C37.704758,47.7786284 37.7194889,47.7800921 37.7342198,47.7843787 C37.7941254,47.8014205 37.8471566,47.8409408 37.8825107,47.8948892 C37.9060801,47.9307502 37.9070622,47.9426691 37.920811,47.9833395 L43.8426269,71.6472311 C43.8504834,71.6976248 43.8553937,71.7423727 43.8426269,71.7927663 C43.8003984,71.958898 43.6216636,72.0471392 43.4753368,71.9741625 C43.4193595,71.9463519 43.3741847,71.8976311 43.3476691,71.8380369 C43.3417768,71.8231907 43.3378486,71.8072989 43.3319562,71.7919299 L37.4111224,48.1281428 C37.404248,48.0853814 37.3993377,48.074508 37.4032659,48.0308057 C37.4111224,47.9316912 37.4700459,47.8427182 37.554503,47.8007932 C37.5918213,47.7823922 37.603606,47.7831241 37.6428883,47.7757009 C37.6586013,47.7757009 37.6743142,47.7757009 37.6890451,47.7757009 Z" id="Fill-19"></path>
                <path d="M43.5219834,44.4156049 C43.5555822,44.4255683 43.5654642,44.4260983 43.5960984,44.4441173 C43.6277208,44.4620303 43.63365,44.4700859 43.6603314,44.4948885 L59.8954725,62.094045 C59.9310477,62.1387745 59.9577291,62.18414 59.9676111,62.2429667 C59.9982453,62.4201889 59.8628619,62.5869176 59.6958561,62.5791801 C59.6256938,62.5760002 59.5693664,62.5431421 59.51798,62.4949147 L43.2818508,44.8957582 C43.2551693,44.8621581 43.2334289,44.8303599 43.2195941,44.7879622 C43.1800661,44.6637371 43.2265115,44.522553 43.3312608,44.4532328 C43.3658478,44.4295961 43.4024112,44.4199507 43.4429274,44.4120011 C43.4824554,44.4106232 43.4824554,44.4106232 43.5219834,44.4156049 Z" id="Fill-20"></path>
                <path d="M46.0785926,39.0281385 L46.1258615,39.0365331 L68.8008351,45.2236662 C68.8159209,45.2291278 68.8310067,45.2332745 68.8450868,45.2400509 C68.9024128,45.2670553 68.948676,45.3142876 68.9758304,45.3719373 C69.0452251,45.5231415 68.9587332,45.706407 68.7988236,45.7489869 C68.750549,45.7619328 68.7073031,45.7572804 68.6590285,45.7485824 L45.9840549,39.5614493 C45.9227059,39.5386928 45.8714142,39.5096657 45.8321911,39.454241 C45.7487163,39.3326708 45.7788879,39.1603284 45.9005801,39.0757754 C45.9418146,39.0469505 45.9830492,39.036432 46.0323295,39.0280374 C46.0474153,39.0280374 46.0635068,39.0281385 46.0785926,39.0281385 Z" id="Fill-21"></path>
                <path d="M68.7558883,26.2433022 C68.8200151,26.2553492 68.876126,26.2756006 68.9232191,26.3248271 C69.0264232,26.4329384 69.0254212,26.6127085 68.9212152,26.7196774 C68.8851439,26.7562338 68.8460666,26.7742004 68.7999755,26.7913362 L46.1211395,32.9628203 C46.1061098,32.9655205 46.0910801,32.9696747 46.0750484,32.9710248 C46.0119236,32.9764251 45.9487988,32.9583547 45.8976978,32.9206559 C45.7624304,32.8218914 45.7463987,32.6146001 45.8636304,32.494338 C45.8986998,32.4578855 45.938779,32.439815 45.9848701,32.4226792 L68.6627041,26.2511951 L68.7097972,26.2429907 C68.7248269,26.2430945 68.7408586,26.2431984 68.7558883,26.2433022 Z" id="Fill-22"></path>
                <path d="M60.3752003,9.42189194 C60.4168452,9.43041491 60.4534115,9.44000326 60.4899778,9.46450682 C60.5966294,9.53482137 60.643353,9.67758121 60.6017081,9.80116436 C60.5874879,9.84377924 60.5641261,9.8757404 60.5367014,9.9098323 L43.6715172,27.5054092 C43.6176835,27.5534575 43.5608026,27.5859514 43.4886857,27.5886148 C43.3160116,27.5949005 43.1778723,27.4261456 43.2103756,27.248335 C43.2215487,27.1892068 43.2499891,27.1439285 43.2865554,27.0992894 L60.1517396,9.50286021 C60.1791643,9.47835665 60.1852587,9.47089905 60.2167463,9.45278772 C60.2492497,9.4346764 60.259407,9.4346764 60.2939418,9.42508805 C60.334571,9.41976119 60.334571,9.41976119 60.3752003,9.42189194 Z" id="Fill-23"></path>
                <path d="M43.6135689,0 C43.6533068,0.00734626214 43.6639682,0.00734626214 43.7007985,0.0262366505 C43.7841512,0.0682152913 43.8413351,0.157419903 43.8490888,0.257119175 C43.8529657,0.301196748 43.8481196,0.311691408 43.8413351,0.354719515 L37.912631,24.0170299 C37.9077849,24.0317224 37.903908,24.0474644 37.8971235,24.0632064 C37.8709546,24.1219765 37.8263706,24.1711964 37.7711252,24.1989023 C37.6257426,24.2714204 37.4503142,24.1820059 37.409607,24.0149309 C37.3970072,23.9645566 37.4018533,23.9194295 37.409607,23.8690552 L43.3383111,0.206744806 C43.3518802,0.166865097 43.3538186,0.154271505 43.3770798,0.11858966 C43.4119717,0.0650668933 43.4643094,0.0251871845 43.5234317,0.00839572816 C43.5379699,0.00419786408 43.5525082,0.00314839806 43.5680157,0 C43.5835232,0 43.5980614,0 43.6135689,0 Z" id="Fill-24"></path>
                <path d="M35.1805639,6.7374543 C35.220119,6.74992332 35.2318786,6.7520015 35.2671574,6.7738223 C35.3206103,6.80811212 35.3612344,6.85902733 35.3815465,6.91721613 C35.3954442,6.95670138 35.3943752,6.96709224 35.3975823,7.00761659 L35.3975823,27.9838481 C35.3933061,28.0317499 35.3868918,28.0738329 35.3623035,28.116851 C35.2746408,28.2744803 35.051208,28.3107444 34.9154378,28.1893792 C34.8683993,28.1475041 34.8373967,28.09077 34.8267061,28.0298796 C34.823499,28.0147089 34.823499,27.9992265 34.8224299,27.9838481 L34.8224299,7.00761659 C34.8256371,6.96709224 34.824568,6.95670138 34.8384658,6.91721613 C34.8694684,6.82889384 34.9464405,6.76031418 35.0394484,6.7374543 C35.0800725,6.72706344 35.0918322,6.72914161 35.1335254,6.72914161 C35.1495612,6.73225887 35.164528,6.73433704 35.1805639,6.7374543 Z" id="Fill-25"></path>
                <path d="M20.9252799,10.0955496 C20.9613391,10.1018247 20.9710849,10.1018247 21.0042205,10.1175122 C21.0578221,10.1436582 21.0929068,10.1844459 21.1250678,10.2346462 L30.9185733,28.5135059 C30.9497597,28.5824267 30.9634037,28.6513475 30.9448868,28.726857 C30.9078529,28.8747387 30.7616667,28.9649946 30.623277,28.9251481 C30.5969635,28.9174089 30.5716245,28.9052772 30.5482347,28.8891712 C30.5121754,28.8637574 30.4887856,28.8316501 30.4644212,28.7937907 L20.6699412,10.514931 C20.6523988,10.4730975 20.6377802,10.4354473 20.6358311,10.3883845 C20.6309582,10.2848465 20.6826107,10.1834001 20.7664241,10.1311081 C20.8044326,10.1080997 20.8414664,10.099733 20.8843477,10.0934579 C20.8979918,10.0945038 20.9116358,10.0945038 20.9252799,10.0955496 Z" id="Fill-26"></path>
                <path d="M10.6429036,20.8662429 C10.6835977,20.8791024 10.6833972,20.8791024 10.7214853,20.8983918 L28.2395944,31.7617288 C28.2997334,31.8060943 28.34584,31.8593543 28.3648841,31.9369404 C28.4029722,32.0885762 28.3157705,32.2491065 28.1734414,32.2893998 C28.1463788,32.2971156 28.1183139,32.3003305 28.090249,32.2986159 C28.0451447,32.2960439 28.0090613,32.2805053 27.9689686,32.2601443 L10.45106,21.3967002 C10.4149765,21.3699094 10.3842054,21.3441903 10.3600495,21.3045399 C10.2803653,21.1727293 10.3167494,20.9905521 10.4400345,20.9058932 C10.4901504,20.871601 10.5424714,20.8619563 10.6009065,20.8598131 C10.6149389,20.8619563 10.6288712,20.8640996 10.6429036,20.8662429 Z" id="Fill-27"></path>
                <path d="M28.1318625,39.7020062 C28.1749603,39.7104723 28.2130467,39.7207601 28.2511332,39.7466941 C28.3603811,39.8226741 28.4044812,39.9773134 28.3513607,40.1052685 C28.3273061,40.1636735 28.2882173,40.2023601 28.2401082,40.2378317 L10.7222491,51.1012651 C10.6826593,51.1216264 10.6461765,51.1371654 10.6016755,51.1397373 C10.5734113,51.141452 10.5451472,51.138237 10.5177851,51.1305211 C10.3759632,51.0902271 10.2888655,50.9296937 10.326551,50.7780551 C10.3458949,50.7004676 10.3916989,50.6472065 10.4518354,50.6028402 L27.969494,39.7394069 C28.0105872,39.7182953 28.0446646,39.7073645 28.0897669,39.7009346 C28.1037988,39.7012561 28.1178306,39.7016847 28.1318625,39.7020062 Z" id="Fill-28"></path>
                <path d="M30.7350624,42.3983804 C30.7720363,42.4095715 30.7823068,42.4103036 30.8161995,42.4300711 C30.904526,42.4825752 30.9589598,42.5840274 30.9527975,42.6886172 C30.9507433,42.7350551 30.9353376,42.7731258 30.9158236,42.8144388 L20.5045984,61.0944413 C20.4789221,61.1320936 20.4542729,61.1642027 20.416272,61.1895135 C20.2899446,61.2726624 20.1153458,61.2346963 20.0342087,61.1060508 C20.0188029,61.081263 20.0064783,61.0540696 19.9992889,61.0256212 C19.9797749,60.9498981 19.9951807,60.881078 20.0270193,60.8122579 L30.4382444,42.5322554 C30.4608396,42.5001463 30.4639207,42.4903149 30.4926782,42.4639582 C30.5501931,42.4116633 30.6179785,42.394406 30.6919263,42.3925234 C30.706305,42.3945106 30.7206837,42.3963932 30.7350624,42.3983804 Z" id="Fill-29"></path>
                <path d="M35.1805639,43.7461997 C35.220119,43.7593962 35.2318786,43.7605393 35.2671574,43.7830877 C35.3206103,43.8169624 35.3612344,43.8678782 35.3815465,43.9262756 C35.3954442,43.9653458 35.3943752,43.9763603 35.3975823,44.0169891 L35.3975823,64.9931901 C35.3933061,65.0410926 35.3868918,65.0831762 35.3623035,65.1261949 C35.2746408,65.2838263 35.051208,65.3200909 34.9154378,65.198724 C34.8683993,65.1568483 34.8373967,65.1001135 34.8267061,65.0392222 C34.823499,65.0240514 34.823499,65.0085688 34.8224299,64.9931901 L34.8224299,44.0169891 C34.8256371,43.9763603 34.824568,43.9653458 34.8384658,43.9262756 C34.8694684,43.8378483 34.9464405,43.7691638 35.0394484,43.7461997 C35.0800725,43.7360165 35.0918322,43.7386142 35.1335254,43.7386142 C35.1495612,43.7411081 35.164528,43.7437058 35.1805639,43.7461997 Z" id="Fill-30"></path>
                <path d="M63.1888708,36.0371448 C63.1759251,36.0786428 63.1749293,36.0904675 63.1540171,36.1275034 C63.121155,36.1830571 63.0723597,36.2256706 63.0165938,36.2472005 C62.9787525,36.2615909 62.9687943,36.2598061 62.9299573,36.2633758 L42.8273145,36.2633758 C42.7815067,36.2591368 42.7406781,36.2522204 42.6998494,36.2272324 C42.5484846,36.1357583 42.5136308,35.9019417 42.6301419,35.76038 C42.6699747,35.7115195 42.7247449,35.6786112 42.7825025,35.6676789 C42.7974399,35.6650016 42.8123772,35.6650016 42.8273145,35.6635514 L62.9299573,35.6635514 C62.9687943,35.6672327 62.9787525,35.6654478 63.0165938,35.6798382 C63.1012386,35.7124119 63.1669628,35.7926191 63.1888708,35.8898939 C63.198829,35.9328421 63.1958416,35.9444437 63.1958416,35.9882843 C63.1938499,36.0045712 63.1918583,36.020858 63.1888708,36.0371448 Z" id="Fill-31"></path>
                <path d="M27.7215811,36.0371448 C27.7086355,36.0786428 27.7076397,36.0904675 27.6867276,36.1275034 C27.6538656,36.1830571 27.6050706,36.2256706 27.5493049,36.2472005 C27.5114639,36.2615909 27.5015057,36.2598061 27.461673,36.2633758 L7.35972266,36.2633758 C7.31381552,36.2591368 7.27348495,36.2522204 7.23225815,36.2272324 C7.08119278,36.1357583 7.04643879,35.9019417 7.16275015,35.76038 C7.20288156,35.7115195 7.25715356,35.6786112 7.31560799,35.6676789 C7.33014691,35.6650016 7.34498458,35.6650016 7.35972266,35.6635514 L27.461673,35.6635514 C27.5015057,35.6672327 27.5114639,35.6654478 27.5493049,35.6798382 C27.6339493,35.7124119 27.6996732,35.7926191 27.7215811,35.8898939 C27.7315393,35.9328421 27.7285519,35.9444437 27.7285519,35.9882843 C27.7265602,36.0045712 27.7245686,36.020858 27.7215811,36.0371448 Z" id="Fill-32"></path>
                <path d="M38.3511917,43.0664664 C38.4097302,43.077448 38.4610797,43.0952277 38.5072943,43.1368531 C38.53605,43.1631043 38.5401579,43.1729354 38.5617247,43.2050435 L48.9723271,61.4845563 C49.0051908,61.5532696 49.0205957,61.6221921 49.0000559,61.6978081 C48.9620572,61.8459025 48.8080087,61.9366835 48.662176,61.897359 C48.6344473,61.8897242 48.6077455,61.8776967 48.5830978,61.861695 C48.5450991,61.8363851 48.5204513,61.8043816 48.4947766,61.7666259 L38.0841742,43.4872177 C38.0646614,43.445906 38.0492565,43.4079411 38.0472025,43.3614002 C38.0410406,43.2569183 38.0954711,43.1554695 38.1837923,43.1029671 C38.2238449,43.0795397 38.2628705,43.0714866 38.3080581,43.0654206 C38.322436,43.0657343 38.3368138,43.0661527 38.3511917,43.0664664 Z" id="Fill-33"></path>
                <path d="M40.9506128,40.3797744 C40.9907048,40.3926322 40.9907048,40.3925242 41.0287922,40.412189 L58.5470015,51.2707508 C58.6071396,51.3152669 58.6532454,51.368859 58.6732914,51.4469781 C58.7113788,51.5997589 58.6241787,51.7618318 58.4828543,51.8031064 C58.4557922,51.8109939 58.4277278,51.8142354 58.3986611,51.8127227 C58.3545598,51.8103456 58.318477,51.7947866 58.278385,51.7744735 L40.7601757,40.9158036 C40.7240928,40.8891156 40.6930215,40.8629679 40.6689663,40.8226657 C40.5887823,40.6900901 40.6248651,40.5070557 40.7471457,40.4206168 C40.7972608,40.385501 40.8493804,40.3756686 40.9085161,40.3738318 C40.9225483,40.3758847 40.9365806,40.3778296 40.9506128,40.3797744 Z" id="Fill-34"></path>
                <path d="M59.0867802,21.5337908 C59.1439102,21.5456764 59.1950266,21.564045 59.239127,21.6072652 C59.3363484,21.7012693 59.3553918,21.8633453 59.2842297,21.9811205 C59.2591727,22.0210992 59.2291042,22.0481119 59.1930221,22.074044 L41.6751356,32.9333503 C41.6350444,32.9536638 41.5989622,32.9692231 41.5538595,32.9716002 C41.4075263,32.979596 41.2792342,32.8542572 41.271216,32.6961791 C41.2702137,32.6657089 41.2732205,32.6352386 41.2802365,32.6058488 C41.3002821,32.5277282 41.3463871,32.4741351 41.406524,32.4296182 L58.9244105,21.570528 C58.965504,21.5499984 58.9995816,21.5391933 59.0446843,21.5327103 C59.0587163,21.5327103 59.0727482,21.5337908 59.0867802,21.5337908 Z" id="Fill-35"></path>
                <path d="M48.8014348,10.7715844 C48.8365202,10.7830887 48.8462661,10.7841346 48.8784277,10.8029599 C48.9632174,10.8552524 49.0138963,10.9566998 49.0090234,11.0612847 C49.0070742,11.108348 48.9934299,11.1459986 48.9749126,11.1867867 L39.1802409,29.4664605 C39.1402825,29.529316 39.0915528,29.5773205 39.021382,29.5977146 C38.995068,29.6054539 38.9677793,29.6085914 38.9395161,29.6071272 C38.7972254,29.5993879 38.6841724,29.4649963 38.6919692,29.312093 C38.6939184,29.2655527 38.7075627,29.2274838 38.72608,29.1860682 L48.5207517,10.906499 C48.5412182,10.8751235 48.5451165,10.864665 48.5724052,10.8385188 C48.6260079,10.7862263 48.6903311,10.7684468 48.7605019,10.7663551 C48.7741462,10.7684468 48.7877905,10.7705385 48.8014348,10.7715844 Z" id="Fill-36"></path>
                <path d="M34.8982889,29.607741 C35.1449503,29.6127612 35.3895646,29.6301714 35.6331555,29.6658465 C36.201193,29.7487322 36.7559252,29.9203782 37.2748351,30.1738419 C37.9923023,30.5243971 38.6371017,31.0276928 39.1641996,31.6449564 C39.8693849,32.4715704 40.3494022,33.5031557 40.5356776,34.5927396 C40.6482616,35.249203 40.655426,35.9255333 40.5592179,36.584667 C40.4722211,37.17448 40.3023216,37.7526505 40.0525898,38.2899123 C39.7578244,38.9242656 39.3596864,39.5045724 38.8755751,39.9965461 C38.3566652,40.5234471 37.747688,40.9481296 37.0813953,41.2430361 C36.3925858,41.5479829 35.6454374,41.7101227 34.8972654,41.7192017 C34.1224827,41.7287079 33.3466765,41.5785309 32.6292093,41.2710207 C32.0243261,41.0116824 31.4624295,40.6471348 30.9732008,40.1941473 C30.3979988,39.662333 29.9282164,39.0112102 29.5925113,38.2899123 C29.2793231,37.6144364 29.0940712,36.8776509 29.0367557,36.1299705 C29.0152624,35.844677 29.0121919,35.5566065 29.0316382,35.2709926 C29.0736014,34.64465 29.2015378,34.0267456 29.4226118,33.4424868 C29.689743,32.7393468 30.0817401,32.0968758 30.5730158,31.5410288 C31.0622445,30.9872113 31.6579163,30.5317671 32.3078331,30.2050308 C32.8011558,29.9570146 33.3282537,29.7820574 33.8686569,29.6888109 C34.1347646,29.6427752 34.4039427,29.6179949 34.6731209,29.6092364 C34.7488592,29.6076342 34.8235741,29.6071001 34.8982889,29.607741 Z M34.7550002,30.2143234 C34.5114093,30.2192367 34.2688419,30.2382492 34.0283215,30.2768081 C33.5401163,30.3545669 33.064193,30.5053847 32.6169274,30.7232801 C31.6087887,31.215147 30.7633851,32.0459267 30.2321932,33.066724 C29.9875789,33.5359469 29.8094914,34.0425537 29.7071423,34.5657163 C29.5914878,35.1537135 29.5699945,35.7616845 29.6426624,36.3570517 C29.7112363,36.9131123 29.8616895,37.4575304 30.0889045,37.9653122 C30.3550122,38.5602521 30.7255159,39.1032817 31.175852,39.562037 C31.6415404,40.0364936 32.1921786,40.4196264 32.7909209,40.684412 C33.4111564,40.9584903 34.0815431,41.1035403 34.7550002,41.1124056 C35.4315277,41.1213778 36.1080553,40.9937381 36.7364788,40.7346134 C37.343409,40.484995 37.9022351,40.1155341 38.379182,39.6522927 C38.8397529,39.2051798 39.2215151,38.6719769 39.5019516,38.0845138 C39.740425,37.5839952 39.9031601,37.0453449 39.9840159,36.4928091 C40.0679422,35.9216881 40.0648717,35.336468 39.973781,34.7665219 C39.8939487,34.259381 39.7434955,33.764737 39.5295859,33.3017093 C39.0270518,32.2151161 38.1775542,31.3177928 37.1428048,30.7807447 C36.7027036,30.5521681 36.2308743,30.3894942 35.746763,30.2991317 C35.5082896,30.2544845 35.2667457,30.2291702 35.0241783,30.217955 C34.9351346,30.2149643 34.8450674,30.2137894 34.7550002,30.2143234 Z" id="Fill-37"></path>
            </g>
        </g>
    </g>
</svg>